<mxfile host="app.diagrams.net" agent="Mozilla/5.0 (Windows NT 10.0; Win64; x64) AppleWebKit/537.36 (KHTML, like Gecko) Chrome/128.0.0.0 Safari/537.36" version="24.7.12">
  <diagram id="R2lEEEUBdFMjLlhIrx00" name="Page-1">
    <mxGraphModel dx="2438" dy="908" grid="0" gridSize="10" guides="1" tooltips="1" connect="1" arrows="1" fold="1" page="1" pageScale="1" pageWidth="850" pageHeight="1100" math="0" shadow="0" extFonts="Permanent Marker^https://fonts.googleapis.com/css?family=Permanent+Marker">
      <root>
        <mxCell id="0" />
        <mxCell id="1" parent="0" />
        <mxCell id="I5kwY946Xk2uND15xitP-1" value="users" style="rounded=0;whiteSpace=wrap;html=1;" parent="1" vertex="1">
          <mxGeometry x="-272" y="238" width="120" height="60" as="geometry" />
        </mxCell>
        <mxCell id="I5kwY946Xk2uND15xitP-2" value="" style="endArrow=none;html=1;rounded=0;entryX=0;entryY=1;entryDx=0;entryDy=0;" parent="1" target="I5kwY946Xk2uND15xitP-1" edge="1">
          <mxGeometry width="50" height="50" relative="1" as="geometry">
            <mxPoint x="-272" y="464" as="sourcePoint" />
            <mxPoint x="38" y="368" as="targetPoint" />
          </mxGeometry>
        </mxCell>
        <mxCell id="I5kwY946Xk2uND15xitP-3" value="" style="endArrow=none;html=1;rounded=0;" parent="1" edge="1">
          <mxGeometry width="50" height="50" relative="1" as="geometry">
            <mxPoint x="-272" y="318" as="sourcePoint" />
            <mxPoint x="-262" y="318" as="targetPoint" />
          </mxGeometry>
        </mxCell>
        <mxCell id="I5kwY946Xk2uND15xitP-4" value="code" style="text;strokeColor=none;fillColor=none;align=left;verticalAlign=middle;spacingLeft=4;spacingRight=4;overflow=hidden;points=[[0,0.5],[1,0.5]];portConstraint=eastwest;rotatable=0;whiteSpace=wrap;html=1;" parent="1" vertex="1">
          <mxGeometry x="-262" y="303" width="80" height="30" as="geometry" />
        </mxCell>
        <mxCell id="I5kwY946Xk2uND15xitP-6" value="" style="endArrow=none;html=1;rounded=0;" parent="1" edge="1">
          <mxGeometry width="50" height="50" relative="1" as="geometry">
            <mxPoint x="-272" y="331" as="sourcePoint" />
            <mxPoint x="-262" y="331" as="targetPoint" />
          </mxGeometry>
        </mxCell>
        <mxCell id="I5kwY946Xk2uND15xitP-7" value="role" style="text;strokeColor=none;fillColor=none;align=left;verticalAlign=middle;spacingLeft=4;spacingRight=4;overflow=hidden;points=[[0,0.5],[1,0.5]];portConstraint=eastwest;rotatable=0;whiteSpace=wrap;html=1;" parent="1" vertex="1">
          <mxGeometry x="-262" y="316" width="80" height="30" as="geometry" />
        </mxCell>
        <mxCell id="I5kwY946Xk2uND15xitP-8" value="" style="endArrow=none;html=1;rounded=0;" parent="1" edge="1">
          <mxGeometry width="50" height="50" relative="1" as="geometry">
            <mxPoint x="-272" y="343" as="sourcePoint" />
            <mxPoint x="-262" y="343" as="targetPoint" />
          </mxGeometry>
        </mxCell>
        <mxCell id="I5kwY946Xk2uND15xitP-9" value="email" style="text;strokeColor=none;fillColor=none;align=left;verticalAlign=middle;spacingLeft=4;spacingRight=4;overflow=hidden;points=[[0,0.5],[1,0.5]];portConstraint=eastwest;rotatable=0;whiteSpace=wrap;html=1;" parent="1" vertex="1">
          <mxGeometry x="-262" y="328" width="80" height="30" as="geometry" />
        </mxCell>
        <mxCell id="I5kwY946Xk2uND15xitP-10" value="" style="endArrow=none;html=1;rounded=0;" parent="1" edge="1">
          <mxGeometry width="50" height="50" relative="1" as="geometry">
            <mxPoint x="-272" y="357" as="sourcePoint" />
            <mxPoint x="-262" y="357" as="targetPoint" />
          </mxGeometry>
        </mxCell>
        <mxCell id="I5kwY946Xk2uND15xitP-11" value="image_id" style="text;strokeColor=none;fillColor=none;align=left;verticalAlign=middle;spacingLeft=4;spacingRight=4;overflow=hidden;points=[[0,0.5],[1,0.5]];portConstraint=eastwest;rotatable=0;whiteSpace=wrap;html=1;" parent="1" vertex="1">
          <mxGeometry x="-262" y="342" width="80" height="30" as="geometry" />
        </mxCell>
        <mxCell id="I5kwY946Xk2uND15xitP-12" value="" style="endArrow=none;html=1;rounded=0;" parent="1" edge="1">
          <mxGeometry width="50" height="50" relative="1" as="geometry">
            <mxPoint x="-272" y="371" as="sourcePoint" />
            <mxPoint x="-262" y="371" as="targetPoint" />
          </mxGeometry>
        </mxCell>
        <mxCell id="I5kwY946Xk2uND15xitP-13" value="surname" style="text;strokeColor=none;fillColor=none;align=left;verticalAlign=middle;spacingLeft=4;spacingRight=4;overflow=hidden;points=[[0,0.5],[1,0.5]];portConstraint=eastwest;rotatable=0;whiteSpace=wrap;html=1;" parent="1" vertex="1">
          <mxGeometry x="-262" y="356" width="80" height="30" as="geometry" />
        </mxCell>
        <mxCell id="I5kwY946Xk2uND15xitP-14" value="" style="endArrow=none;html=1;rounded=0;" parent="1" edge="1">
          <mxGeometry width="50" height="50" relative="1" as="geometry">
            <mxPoint x="-272" y="385" as="sourcePoint" />
            <mxPoint x="-262" y="385" as="targetPoint" />
          </mxGeometry>
        </mxCell>
        <mxCell id="I5kwY946Xk2uND15xitP-15" value="address" style="text;strokeColor=none;fillColor=none;align=left;verticalAlign=middle;spacingLeft=4;spacingRight=4;overflow=hidden;points=[[0,0.5],[1,0.5]];portConstraint=eastwest;rotatable=0;whiteSpace=wrap;html=1;" parent="1" vertex="1">
          <mxGeometry x="-262" y="370" width="80" height="30" as="geometry" />
        </mxCell>
        <mxCell id="I5kwY946Xk2uND15xitP-16" value="" style="endArrow=none;html=1;rounded=0;" parent="1" edge="1">
          <mxGeometry width="50" height="50" relative="1" as="geometry">
            <mxPoint x="-272" y="399" as="sourcePoint" />
            <mxPoint x="-262" y="399" as="targetPoint" />
          </mxGeometry>
        </mxCell>
        <mxCell id="I5kwY946Xk2uND15xitP-17" value="location" style="text;strokeColor=none;fillColor=none;align=left;verticalAlign=middle;spacingLeft=4;spacingRight=4;overflow=hidden;points=[[0,0.5],[1,0.5]];portConstraint=eastwest;rotatable=0;whiteSpace=wrap;html=1;" parent="1" vertex="1">
          <mxGeometry x="-262" y="384" width="80" height="30" as="geometry" />
        </mxCell>
        <mxCell id="I5kwY946Xk2uND15xitP-18" value="" style="endArrow=none;html=1;rounded=0;" parent="1" edge="1">
          <mxGeometry width="50" height="50" relative="1" as="geometry">
            <mxPoint x="-272" y="412" as="sourcePoint" />
            <mxPoint x="-262" y="412" as="targetPoint" />
          </mxGeometry>
        </mxCell>
        <mxCell id="I5kwY946Xk2uND15xitP-19" value="username" style="text;strokeColor=none;fillColor=none;align=left;verticalAlign=middle;spacingLeft=4;spacingRight=4;overflow=hidden;points=[[0,0.5],[1,0.5]];portConstraint=eastwest;rotatable=0;whiteSpace=wrap;html=1;" parent="1" vertex="1">
          <mxGeometry x="-262" y="397" width="80" height="30" as="geometry" />
        </mxCell>
        <mxCell id="I5kwY946Xk2uND15xitP-20" value="" style="endArrow=none;html=1;rounded=0;" parent="1" edge="1">
          <mxGeometry width="50" height="50" relative="1" as="geometry">
            <mxPoint x="-272" y="425" as="sourcePoint" />
            <mxPoint x="-262" y="425" as="targetPoint" />
          </mxGeometry>
        </mxCell>
        <mxCell id="I5kwY946Xk2uND15xitP-21" value="password" style="text;strokeColor=none;fillColor=none;align=left;verticalAlign=middle;spacingLeft=4;spacingRight=4;overflow=hidden;points=[[0,0.5],[1,0.5]];portConstraint=eastwest;rotatable=0;whiteSpace=wrap;html=1;" parent="1" vertex="1">
          <mxGeometry x="-262" y="410" width="80" height="30" as="geometry" />
        </mxCell>
        <mxCell id="I5kwY946Xk2uND15xitP-22" value="" style="endArrow=none;html=1;rounded=0;" parent="1" edge="1">
          <mxGeometry width="50" height="50" relative="1" as="geometry">
            <mxPoint x="-272" y="437" as="sourcePoint" />
            <mxPoint x="-262" y="437" as="targetPoint" />
          </mxGeometry>
        </mxCell>
        <mxCell id="I5kwY946Xk2uND15xitP-23" value="cellphone" style="text;strokeColor=none;fillColor=none;align=left;verticalAlign=middle;spacingLeft=4;spacingRight=4;overflow=hidden;points=[[0,0.5],[1,0.5]];portConstraint=eastwest;rotatable=0;whiteSpace=wrap;html=1;" parent="1" vertex="1">
          <mxGeometry x="-262" y="422" width="80" height="30" as="geometry" />
        </mxCell>
        <mxCell id="I5kwY946Xk2uND15xitP-24" value="" style="endArrow=none;html=1;rounded=0;" parent="1" edge="1">
          <mxGeometry width="50" height="50" relative="1" as="geometry">
            <mxPoint x="-272" y="451" as="sourcePoint" />
            <mxPoint x="-262" y="451" as="targetPoint" />
          </mxGeometry>
        </mxCell>
        <mxCell id="I5kwY946Xk2uND15xitP-25" value="created_at" style="text;strokeColor=none;fillColor=none;align=left;verticalAlign=middle;spacingLeft=4;spacingRight=4;overflow=hidden;points=[[0,0.5],[1,0.5]];portConstraint=eastwest;rotatable=0;whiteSpace=wrap;html=1;" parent="1" vertex="1">
          <mxGeometry x="-262" y="436" width="80" height="30" as="geometry" />
        </mxCell>
        <mxCell id="I5kwY946Xk2uND15xitP-26" value="" style="endArrow=none;html=1;rounded=0;" parent="1" edge="1">
          <mxGeometry width="50" height="50" relative="1" as="geometry">
            <mxPoint x="-272" y="464" as="sourcePoint" />
            <mxPoint x="-262" y="464" as="targetPoint" />
          </mxGeometry>
        </mxCell>
        <mxCell id="I5kwY946Xk2uND15xitP-27" value="updated_at" style="text;strokeColor=none;fillColor=none;align=left;verticalAlign=middle;spacingLeft=4;spacingRight=4;overflow=hidden;points=[[0,0.5],[1,0.5]];portConstraint=eastwest;rotatable=0;whiteSpace=wrap;html=1;" parent="1" vertex="1">
          <mxGeometry x="-262" y="449" width="80" height="30" as="geometry" />
        </mxCell>
        <mxCell id="I5kwY946Xk2uND15xitP-28" value="payments" style="rounded=0;whiteSpace=wrap;html=1;" parent="1" vertex="1">
          <mxGeometry x="-488" y="106" width="120" height="60" as="geometry" />
        </mxCell>
        <mxCell id="I5kwY946Xk2uND15xitP-29" value="" style="endArrow=none;html=1;rounded=0;entryX=0;entryY=1;entryDx=0;entryDy=0;" parent="1" target="I5kwY946Xk2uND15xitP-28" edge="1">
          <mxGeometry width="50" height="50" relative="1" as="geometry">
            <mxPoint x="-488" y="278" as="sourcePoint" />
            <mxPoint x="-178" y="236" as="targetPoint" />
          </mxGeometry>
        </mxCell>
        <mxCell id="I5kwY946Xk2uND15xitP-30" value="" style="endArrow=none;html=1;rounded=0;" parent="1" edge="1">
          <mxGeometry width="50" height="50" relative="1" as="geometry">
            <mxPoint x="-488" y="186" as="sourcePoint" />
            <mxPoint x="-478" y="186" as="targetPoint" />
          </mxGeometry>
        </mxCell>
        <mxCell id="I5kwY946Xk2uND15xitP-31" value="code" style="text;strokeColor=none;fillColor=none;align=left;verticalAlign=middle;spacingLeft=4;spacingRight=4;overflow=hidden;points=[[0,0.5],[1,0.5]];portConstraint=eastwest;rotatable=0;whiteSpace=wrap;html=1;" parent="1" vertex="1">
          <mxGeometry x="-478" y="171" width="80" height="30" as="geometry" />
        </mxCell>
        <mxCell id="I5kwY946Xk2uND15xitP-32" value="" style="endArrow=none;html=1;rounded=0;" parent="1" edge="1">
          <mxGeometry width="50" height="50" relative="1" as="geometry">
            <mxPoint x="-488" y="199" as="sourcePoint" />
            <mxPoint x="-478" y="199" as="targetPoint" />
          </mxGeometry>
        </mxCell>
        <mxCell id="I5kwY946Xk2uND15xitP-33" value="state" style="text;strokeColor=none;fillColor=none;align=left;verticalAlign=middle;spacingLeft=4;spacingRight=4;overflow=hidden;points=[[0,0.5],[1,0.5]];portConstraint=eastwest;rotatable=0;whiteSpace=wrap;html=1;" parent="1" vertex="1">
          <mxGeometry x="-478" y="184" width="80" height="30" as="geometry" />
        </mxCell>
        <mxCell id="I5kwY946Xk2uND15xitP-34" value="" style="endArrow=none;html=1;rounded=0;" parent="1" edge="1">
          <mxGeometry width="50" height="50" relative="1" as="geometry">
            <mxPoint x="-488" y="211" as="sourcePoint" />
            <mxPoint x="-478" y="211" as="targetPoint" />
          </mxGeometry>
        </mxCell>
        <mxCell id="I5kwY946Xk2uND15xitP-35" value="method" style="text;strokeColor=none;fillColor=none;align=left;verticalAlign=middle;spacingLeft=4;spacingRight=4;overflow=hidden;points=[[0,0.5],[1,0.5]];portConstraint=eastwest;rotatable=0;whiteSpace=wrap;html=1;" parent="1" vertex="1">
          <mxGeometry x="-478" y="196" width="80" height="30" as="geometry" />
        </mxCell>
        <mxCell id="I5kwY946Xk2uND15xitP-36" value="" style="endArrow=none;html=1;rounded=0;" parent="1" edge="1">
          <mxGeometry width="50" height="50" relative="1" as="geometry">
            <mxPoint x="-488" y="225" as="sourcePoint" />
            <mxPoint x="-478" y="225" as="targetPoint" />
          </mxGeometry>
        </mxCell>
        <mxCell id="I5kwY946Xk2uND15xitP-37" value="quotes" style="text;strokeColor=none;fillColor=none;align=left;verticalAlign=middle;spacingLeft=4;spacingRight=4;overflow=hidden;points=[[0,0.5],[1,0.5]];portConstraint=eastwest;rotatable=0;whiteSpace=wrap;html=1;" parent="1" vertex="1">
          <mxGeometry x="-478" y="210" width="80" height="30" as="geometry" />
        </mxCell>
        <mxCell id="I5kwY946Xk2uND15xitP-38" value="" style="endArrow=none;html=1;rounded=0;" parent="1" edge="1">
          <mxGeometry width="50" height="50" relative="1" as="geometry">
            <mxPoint x="-488" y="239" as="sourcePoint" />
            <mxPoint x="-478" y="239" as="targetPoint" />
          </mxGeometry>
        </mxCell>
        <mxCell id="I5kwY946Xk2uND15xitP-39" value="user_id" style="text;strokeColor=none;fillColor=none;align=left;verticalAlign=middle;spacingLeft=4;spacingRight=4;overflow=hidden;points=[[0,0.5],[1,0.5]];portConstraint=eastwest;rotatable=0;whiteSpace=wrap;html=1;" parent="1" vertex="1">
          <mxGeometry x="-478" y="224" width="80" height="30" as="geometry" />
        </mxCell>
        <mxCell id="I5kwY946Xk2uND15xitP-40" value="" style="endArrow=none;html=1;rounded=0;" parent="1" edge="1">
          <mxGeometry width="50" height="50" relative="1" as="geometry">
            <mxPoint x="-488" y="253" as="sourcePoint" />
            <mxPoint x="-478" y="253" as="targetPoint" />
          </mxGeometry>
        </mxCell>
        <mxCell id="I5kwY946Xk2uND15xitP-41" value="sale_id" style="text;strokeColor=none;fillColor=none;align=left;verticalAlign=middle;spacingLeft=4;spacingRight=4;overflow=hidden;points=[[0,0.5],[1,0.5]];portConstraint=eastwest;rotatable=0;whiteSpace=wrap;html=1;" parent="1" vertex="1">
          <mxGeometry x="-478" y="238" width="80" height="30" as="geometry" />
        </mxCell>
        <mxCell id="I5kwY946Xk2uND15xitP-50" value="" style="endArrow=none;html=1;rounded=0;" parent="1" edge="1">
          <mxGeometry width="50" height="50" relative="1" as="geometry">
            <mxPoint x="-488" y="266" as="sourcePoint" />
            <mxPoint x="-478" y="266" as="targetPoint" />
          </mxGeometry>
        </mxCell>
        <mxCell id="I5kwY946Xk2uND15xitP-51" value="created_at" style="text;strokeColor=none;fillColor=none;align=left;verticalAlign=middle;spacingLeft=4;spacingRight=4;overflow=hidden;points=[[0,0.5],[1,0.5]];portConstraint=eastwest;rotatable=0;whiteSpace=wrap;html=1;" parent="1" vertex="1">
          <mxGeometry x="-478" y="251" width="80" height="30" as="geometry" />
        </mxCell>
        <mxCell id="I5kwY946Xk2uND15xitP-52" value="" style="endArrow=none;html=1;rounded=0;" parent="1" edge="1">
          <mxGeometry width="50" height="50" relative="1" as="geometry">
            <mxPoint x="-488" y="279" as="sourcePoint" />
            <mxPoint x="-478" y="279" as="targetPoint" />
          </mxGeometry>
        </mxCell>
        <mxCell id="I5kwY946Xk2uND15xitP-53" value="updated_at" style="text;strokeColor=none;fillColor=none;align=left;verticalAlign=middle;spacingLeft=4;spacingRight=4;overflow=hidden;points=[[0,0.5],[1,0.5]];portConstraint=eastwest;rotatable=0;whiteSpace=wrap;html=1;" parent="1" vertex="1">
          <mxGeometry x="-478" y="264" width="80" height="30" as="geometry" />
        </mxCell>
        <mxCell id="I5kwY946Xk2uND15xitP-54" value="" style="endArrow=none;html=1;rounded=0;exitX=1;exitY=0.5;exitDx=0;exitDy=0;entryX=0;entryY=0.5;entryDx=0;entryDy=0;" parent="1" source="I5kwY946Xk2uND15xitP-28" target="MCrLTPE8SwFMUA2QVfa2-40" edge="1">
          <mxGeometry width="50" height="50" relative="1" as="geometry">
            <mxPoint x="-336" y="220" as="sourcePoint" />
            <mxPoint x="-317" y="136" as="targetPoint" />
            <Array as="points" />
          </mxGeometry>
        </mxCell>
        <mxCell id="I5kwY946Xk2uND15xitP-55" value="n" style="text;html=1;align=center;verticalAlign=middle;whiteSpace=wrap;rounded=0;" parent="1" vertex="1">
          <mxGeometry x="-387" y="111" width="60" height="30" as="geometry" />
        </mxCell>
        <mxCell id="I5kwY946Xk2uND15xitP-56" value="1" style="text;html=1;align=center;verticalAlign=middle;whiteSpace=wrap;rounded=0;" parent="1" vertex="1">
          <mxGeometry x="-266" y="214" width="60" height="30" as="geometry" />
        </mxCell>
        <mxCell id="I5kwY946Xk2uND15xitP-57" value="tokens" style="rounded=0;whiteSpace=wrap;html=1;" parent="1" vertex="1">
          <mxGeometry x="-275" y="493" width="120" height="60" as="geometry" />
        </mxCell>
        <mxCell id="I5kwY946Xk2uND15xitP-58" value="" style="endArrow=none;html=1;rounded=0;entryX=0;entryY=1;entryDx=0;entryDy=0;" parent="1" target="I5kwY946Xk2uND15xitP-57" edge="1">
          <mxGeometry width="50" height="50" relative="1" as="geometry">
            <mxPoint x="-275" y="638" as="sourcePoint" />
            <mxPoint x="35" y="623" as="targetPoint" />
          </mxGeometry>
        </mxCell>
        <mxCell id="I5kwY946Xk2uND15xitP-59" value="" style="endArrow=none;html=1;rounded=0;" parent="1" edge="1">
          <mxGeometry width="50" height="50" relative="1" as="geometry">
            <mxPoint x="-275" y="573" as="sourcePoint" />
            <mxPoint x="-265" y="573" as="targetPoint" />
          </mxGeometry>
        </mxCell>
        <mxCell id="I5kwY946Xk2uND15xitP-60" value="code" style="text;strokeColor=none;fillColor=none;align=left;verticalAlign=middle;spacingLeft=4;spacingRight=4;overflow=hidden;points=[[0,0.5],[1,0.5]];portConstraint=eastwest;rotatable=0;whiteSpace=wrap;html=1;" parent="1" vertex="1">
          <mxGeometry x="-265" y="558" width="80" height="30" as="geometry" />
        </mxCell>
        <mxCell id="I5kwY946Xk2uND15xitP-61" value="" style="endArrow=none;html=1;rounded=0;" parent="1" edge="1">
          <mxGeometry width="50" height="50" relative="1" as="geometry">
            <mxPoint x="-275" y="586" as="sourcePoint" />
            <mxPoint x="-265" y="586" as="targetPoint" />
          </mxGeometry>
        </mxCell>
        <mxCell id="I5kwY946Xk2uND15xitP-62" value="type" style="text;strokeColor=none;fillColor=none;align=left;verticalAlign=middle;spacingLeft=4;spacingRight=4;overflow=hidden;points=[[0,0.5],[1,0.5]];portConstraint=eastwest;rotatable=0;whiteSpace=wrap;html=1;" parent="1" vertex="1">
          <mxGeometry x="-265" y="571" width="80" height="30" as="geometry" />
        </mxCell>
        <mxCell id="I5kwY946Xk2uND15xitP-63" value="" style="endArrow=none;html=1;rounded=0;" parent="1" edge="1">
          <mxGeometry width="50" height="50" relative="1" as="geometry">
            <mxPoint x="-275" y="598" as="sourcePoint" />
            <mxPoint x="-265" y="598" as="targetPoint" />
          </mxGeometry>
        </mxCell>
        <mxCell id="I5kwY946Xk2uND15xitP-64" value="token" style="text;strokeColor=none;fillColor=none;align=left;verticalAlign=middle;spacingLeft=4;spacingRight=4;overflow=hidden;points=[[0,0.5],[1,0.5]];portConstraint=eastwest;rotatable=0;whiteSpace=wrap;html=1;" parent="1" vertex="1">
          <mxGeometry x="-265" y="583" width="80" height="30" as="geometry" />
        </mxCell>
        <mxCell id="I5kwY946Xk2uND15xitP-67" value="" style="endArrow=none;html=1;rounded=0;" parent="1" edge="1">
          <mxGeometry width="50" height="50" relative="1" as="geometry">
            <mxPoint x="-275" y="611" as="sourcePoint" />
            <mxPoint x="-265" y="611" as="targetPoint" />
          </mxGeometry>
        </mxCell>
        <mxCell id="I5kwY946Xk2uND15xitP-68" value="user_id" style="text;strokeColor=none;fillColor=none;align=left;verticalAlign=middle;spacingLeft=4;spacingRight=4;overflow=hidden;points=[[0,0.5],[1,0.5]];portConstraint=eastwest;rotatable=0;whiteSpace=wrap;html=1;" parent="1" vertex="1">
          <mxGeometry x="-265" y="596" width="80" height="30" as="geometry" />
        </mxCell>
        <mxCell id="I5kwY946Xk2uND15xitP-71" value="" style="endArrow=none;html=1;rounded=0;" parent="1" edge="1">
          <mxGeometry width="50" height="50" relative="1" as="geometry">
            <mxPoint x="-275" y="623" as="sourcePoint" />
            <mxPoint x="-265" y="623" as="targetPoint" />
          </mxGeometry>
        </mxCell>
        <mxCell id="I5kwY946Xk2uND15xitP-72" value="created_at" style="text;strokeColor=none;fillColor=none;align=left;verticalAlign=middle;spacingLeft=4;spacingRight=4;overflow=hidden;points=[[0,0.5],[1,0.5]];portConstraint=eastwest;rotatable=0;whiteSpace=wrap;html=1;" parent="1" vertex="1">
          <mxGeometry x="-265" y="608" width="80" height="30" as="geometry" />
        </mxCell>
        <mxCell id="I5kwY946Xk2uND15xitP-73" value="" style="endArrow=none;html=1;rounded=0;" parent="1" edge="1">
          <mxGeometry width="50" height="50" relative="1" as="geometry">
            <mxPoint x="-275" y="636" as="sourcePoint" />
            <mxPoint x="-265" y="636" as="targetPoint" />
          </mxGeometry>
        </mxCell>
        <mxCell id="I5kwY946Xk2uND15xitP-74" value="updated_at" style="text;strokeColor=none;fillColor=none;align=left;verticalAlign=middle;spacingLeft=4;spacingRight=4;overflow=hidden;points=[[0,0.5],[1,0.5]];portConstraint=eastwest;rotatable=0;whiteSpace=wrap;html=1;" parent="1" vertex="1">
          <mxGeometry x="-265" y="621" width="80" height="30" as="geometry" />
        </mxCell>
        <mxCell id="I5kwY946Xk2uND15xitP-75" value="" style="endArrow=none;html=1;rounded=0;entryX=0;entryY=0.5;entryDx=0;entryDy=0;exitX=0.5;exitY=0;exitDx=0;exitDy=0;" parent="1" source="MCrLTPE8SwFMUA2QVfa2-38" target="I5kwY946Xk2uND15xitP-1" edge="1">
          <mxGeometry width="50" height="50" relative="1" as="geometry">
            <mxPoint x="-389" y="327" as="sourcePoint" />
            <mxPoint x="-51" y="328" as="targetPoint" />
            <Array as="points">
              <mxPoint x="-389" y="268" />
            </Array>
          </mxGeometry>
        </mxCell>
        <mxCell id="I5kwY946Xk2uND15xitP-76" value="1" style="text;html=1;align=center;verticalAlign=middle;whiteSpace=wrap;rounded=0;" parent="1" vertex="1">
          <mxGeometry x="-309" y="247" width="60" height="30" as="geometry" />
        </mxCell>
        <mxCell id="I5kwY946Xk2uND15xitP-77" value="n" style="text;html=1;align=center;verticalAlign=middle;whiteSpace=wrap;rounded=0;" parent="1" vertex="1">
          <mxGeometry x="-312" y="501" width="60" height="30" as="geometry" />
        </mxCell>
        <mxCell id="I5kwY946Xk2uND15xitP-78" value="sales" style="rounded=0;whiteSpace=wrap;html=1;" parent="1" vertex="1">
          <mxGeometry x="-17" y="238" width="120" height="60" as="geometry" />
        </mxCell>
        <mxCell id="I5kwY946Xk2uND15xitP-79" value="" style="endArrow=none;html=1;rounded=0;entryX=0;entryY=1;entryDx=0;entryDy=0;" parent="1" target="I5kwY946Xk2uND15xitP-78" edge="1">
          <mxGeometry width="50" height="50" relative="1" as="geometry">
            <mxPoint x="-17" y="383" as="sourcePoint" />
            <mxPoint x="293" y="368" as="targetPoint" />
          </mxGeometry>
        </mxCell>
        <mxCell id="I5kwY946Xk2uND15xitP-80" value="" style="endArrow=none;html=1;rounded=0;" parent="1" edge="1">
          <mxGeometry width="50" height="50" relative="1" as="geometry">
            <mxPoint x="-17" y="318" as="sourcePoint" />
            <mxPoint x="-7" y="318" as="targetPoint" />
          </mxGeometry>
        </mxCell>
        <mxCell id="I5kwY946Xk2uND15xitP-81" value="code" style="text;strokeColor=none;fillColor=none;align=left;verticalAlign=middle;spacingLeft=4;spacingRight=4;overflow=hidden;points=[[0,0.5],[1,0.5]];portConstraint=eastwest;rotatable=0;whiteSpace=wrap;html=1;" parent="1" vertex="1">
          <mxGeometry x="-7" y="303" width="80" height="30" as="geometry" />
        </mxCell>
        <mxCell id="I5kwY946Xk2uND15xitP-82" value="" style="endArrow=none;html=1;rounded=0;" parent="1" edge="1">
          <mxGeometry width="50" height="50" relative="1" as="geometry">
            <mxPoint x="-17" y="331" as="sourcePoint" />
            <mxPoint x="-7" y="331" as="targetPoint" />
          </mxGeometry>
        </mxCell>
        <mxCell id="I5kwY946Xk2uND15xitP-83" value="total" style="text;strokeColor=none;fillColor=none;align=left;verticalAlign=middle;spacingLeft=4;spacingRight=4;overflow=hidden;points=[[0,0.5],[1,0.5]];portConstraint=eastwest;rotatable=0;whiteSpace=wrap;html=1;" parent="1" vertex="1">
          <mxGeometry x="-7" y="316" width="80" height="30" as="geometry" />
        </mxCell>
        <mxCell id="I5kwY946Xk2uND15xitP-84" value="" style="endArrow=none;html=1;rounded=0;" parent="1" edge="1">
          <mxGeometry width="50" height="50" relative="1" as="geometry">
            <mxPoint x="-17" y="343" as="sourcePoint" />
            <mxPoint x="-7" y="343" as="targetPoint" />
          </mxGeometry>
        </mxCell>
        <mxCell id="I5kwY946Xk2uND15xitP-85" value="payment_id" style="text;strokeColor=none;fillColor=none;align=left;verticalAlign=middle;spacingLeft=4;spacingRight=4;overflow=hidden;points=[[0,0.5],[1,0.5]];portConstraint=eastwest;rotatable=0;whiteSpace=wrap;html=1;" parent="1" vertex="1">
          <mxGeometry x="-7" y="328" width="80" height="30" as="geometry" />
        </mxCell>
        <mxCell id="I5kwY946Xk2uND15xitP-86" value="" style="endArrow=none;html=1;rounded=0;" parent="1" edge="1">
          <mxGeometry width="50" height="50" relative="1" as="geometry">
            <mxPoint x="-17" y="356" as="sourcePoint" />
            <mxPoint x="-7" y="356" as="targetPoint" />
          </mxGeometry>
        </mxCell>
        <mxCell id="I5kwY946Xk2uND15xitP-87" value="user_id" style="text;strokeColor=none;fillColor=none;align=left;verticalAlign=middle;spacingLeft=4;spacingRight=4;overflow=hidden;points=[[0,0.5],[1,0.5]];portConstraint=eastwest;rotatable=0;whiteSpace=wrap;html=1;" parent="1" vertex="1">
          <mxGeometry x="-7" y="341" width="80" height="30" as="geometry" />
        </mxCell>
        <mxCell id="I5kwY946Xk2uND15xitP-88" value="" style="endArrow=none;html=1;rounded=0;" parent="1" edge="1">
          <mxGeometry width="50" height="50" relative="1" as="geometry">
            <mxPoint x="-17" y="368" as="sourcePoint" />
            <mxPoint x="-7" y="368" as="targetPoint" />
          </mxGeometry>
        </mxCell>
        <mxCell id="I5kwY946Xk2uND15xitP-89" value="created_at" style="text;strokeColor=none;fillColor=none;align=left;verticalAlign=middle;spacingLeft=4;spacingRight=4;overflow=hidden;points=[[0,0.5],[1,0.5]];portConstraint=eastwest;rotatable=0;whiteSpace=wrap;html=1;" parent="1" vertex="1">
          <mxGeometry x="-7" y="353" width="80" height="30" as="geometry" />
        </mxCell>
        <mxCell id="I5kwY946Xk2uND15xitP-90" value="" style="endArrow=none;html=1;rounded=0;" parent="1" edge="1">
          <mxGeometry width="50" height="50" relative="1" as="geometry">
            <mxPoint x="-17" y="381" as="sourcePoint" />
            <mxPoint x="-7" y="381" as="targetPoint" />
          </mxGeometry>
        </mxCell>
        <mxCell id="I5kwY946Xk2uND15xitP-91" value="updated_at" style="text;strokeColor=none;fillColor=none;align=left;verticalAlign=middle;spacingLeft=4;spacingRight=4;overflow=hidden;points=[[0,0.5],[1,0.5]];portConstraint=eastwest;rotatable=0;whiteSpace=wrap;html=1;" parent="1" vertex="1">
          <mxGeometry x="-7" y="366" width="80" height="30" as="geometry" />
        </mxCell>
        <mxCell id="I5kwY946Xk2uND15xitP-92" value="" style="endArrow=none;html=1;rounded=0;entryX=0;entryY=0.5;entryDx=0;entryDy=0;exitX=1;exitY=0.5;exitDx=0;exitDy=0;" parent="1" source="MCrLTPE8SwFMUA2QVfa2-48" target="I5kwY946Xk2uND15xitP-78" edge="1">
          <mxGeometry width="50" height="50" relative="1" as="geometry">
            <mxPoint x="-247" y="434" as="sourcePoint" />
            <mxPoint x="-197" y="384" as="targetPoint" />
          </mxGeometry>
        </mxCell>
        <mxCell id="I5kwY946Xk2uND15xitP-93" value="1" style="text;html=1;align=center;verticalAlign=middle;whiteSpace=wrap;rounded=0;" parent="1" vertex="1">
          <mxGeometry x="-173" y="247" width="60" height="30" as="geometry" />
        </mxCell>
        <mxCell id="I5kwY946Xk2uND15xitP-94" value="1" style="text;html=1;align=center;verticalAlign=middle;whiteSpace=wrap;rounded=0;" parent="1" vertex="1">
          <mxGeometry x="-53" y="247" width="60" height="30" as="geometry" />
        </mxCell>
        <mxCell id="I5kwY946Xk2uND15xitP-95" value="images" style="rounded=0;whiteSpace=wrap;html=1;" parent="1" vertex="1">
          <mxGeometry x="-24" y="440" width="120" height="60" as="geometry" />
        </mxCell>
        <mxCell id="I5kwY946Xk2uND15xitP-96" value="" style="endArrow=none;html=1;rounded=0;entryX=0;entryY=1;entryDx=0;entryDy=0;" parent="1" target="I5kwY946Xk2uND15xitP-95" edge="1">
          <mxGeometry width="50" height="50" relative="1" as="geometry">
            <mxPoint x="-24" y="585" as="sourcePoint" />
            <mxPoint x="286" y="570" as="targetPoint" />
          </mxGeometry>
        </mxCell>
        <mxCell id="I5kwY946Xk2uND15xitP-97" value="" style="endArrow=none;html=1;rounded=0;" parent="1" edge="1">
          <mxGeometry width="50" height="50" relative="1" as="geometry">
            <mxPoint x="-24" y="520" as="sourcePoint" />
            <mxPoint x="-14" y="520" as="targetPoint" />
          </mxGeometry>
        </mxCell>
        <mxCell id="I5kwY946Xk2uND15xitP-98" value="code" style="text;strokeColor=none;fillColor=none;align=left;verticalAlign=middle;spacingLeft=4;spacingRight=4;overflow=hidden;points=[[0,0.5],[1,0.5]];portConstraint=eastwest;rotatable=0;whiteSpace=wrap;html=1;" parent="1" vertex="1">
          <mxGeometry x="-14" y="505" width="80" height="30" as="geometry" />
        </mxCell>
        <mxCell id="I5kwY946Xk2uND15xitP-99" value="" style="endArrow=none;html=1;rounded=0;" parent="1" edge="1">
          <mxGeometry width="50" height="50" relative="1" as="geometry">
            <mxPoint x="-24" y="533" as="sourcePoint" />
            <mxPoint x="-14" y="533" as="targetPoint" />
          </mxGeometry>
        </mxCell>
        <mxCell id="I5kwY946Xk2uND15xitP-100" value="name" style="text;strokeColor=none;fillColor=none;align=left;verticalAlign=middle;spacingLeft=4;spacingRight=4;overflow=hidden;points=[[0,0.5],[1,0.5]];portConstraint=eastwest;rotatable=0;whiteSpace=wrap;html=1;" parent="1" vertex="1">
          <mxGeometry x="-14" y="518" width="80" height="30" as="geometry" />
        </mxCell>
        <mxCell id="I5kwY946Xk2uND15xitP-101" value="" style="endArrow=none;html=1;rounded=0;" parent="1" edge="1">
          <mxGeometry width="50" height="50" relative="1" as="geometry">
            <mxPoint x="-24" y="545" as="sourcePoint" />
            <mxPoint x="-14" y="545" as="targetPoint" />
          </mxGeometry>
        </mxCell>
        <mxCell id="I5kwY946Xk2uND15xitP-102" value="type" style="text;strokeColor=none;fillColor=none;align=left;verticalAlign=middle;spacingLeft=4;spacingRight=4;overflow=hidden;points=[[0,0.5],[1,0.5]];portConstraint=eastwest;rotatable=0;whiteSpace=wrap;html=1;" parent="1" vertex="1">
          <mxGeometry x="-14" y="530" width="80" height="30" as="geometry" />
        </mxCell>
        <mxCell id="I5kwY946Xk2uND15xitP-103" value="" style="endArrow=none;html=1;rounded=0;" parent="1" edge="1">
          <mxGeometry width="50" height="50" relative="1" as="geometry">
            <mxPoint x="-24" y="558" as="sourcePoint" />
            <mxPoint x="-14" y="558" as="targetPoint" />
          </mxGeometry>
        </mxCell>
        <mxCell id="I5kwY946Xk2uND15xitP-104" value="size" style="text;strokeColor=none;fillColor=none;align=left;verticalAlign=middle;spacingLeft=4;spacingRight=4;overflow=hidden;points=[[0,0.5],[1,0.5]];portConstraint=eastwest;rotatable=0;whiteSpace=wrap;html=1;" parent="1" vertex="1">
          <mxGeometry x="-14" y="543" width="80" height="30" as="geometry" />
        </mxCell>
        <mxCell id="I5kwY946Xk2uND15xitP-105" value="" style="endArrow=none;html=1;rounded=0;" parent="1" edge="1">
          <mxGeometry width="50" height="50" relative="1" as="geometry">
            <mxPoint x="-24" y="570" as="sourcePoint" />
            <mxPoint x="-14" y="570" as="targetPoint" />
          </mxGeometry>
        </mxCell>
        <mxCell id="I5kwY946Xk2uND15xitP-106" value="created_at" style="text;strokeColor=none;fillColor=none;align=left;verticalAlign=middle;spacingLeft=4;spacingRight=4;overflow=hidden;points=[[0,0.5],[1,0.5]];portConstraint=eastwest;rotatable=0;whiteSpace=wrap;html=1;" parent="1" vertex="1">
          <mxGeometry x="-14" y="555" width="80" height="30" as="geometry" />
        </mxCell>
        <mxCell id="I5kwY946Xk2uND15xitP-107" value="" style="endArrow=none;html=1;rounded=0;" parent="1" edge="1">
          <mxGeometry width="50" height="50" relative="1" as="geometry">
            <mxPoint x="-24" y="583" as="sourcePoint" />
            <mxPoint x="-14" y="583" as="targetPoint" />
          </mxGeometry>
        </mxCell>
        <mxCell id="I5kwY946Xk2uND15xitP-108" value="updated_at" style="text;strokeColor=none;fillColor=none;align=left;verticalAlign=middle;spacingLeft=4;spacingRight=4;overflow=hidden;points=[[0,0.5],[1,0.5]];portConstraint=eastwest;rotatable=0;whiteSpace=wrap;html=1;" parent="1" vertex="1">
          <mxGeometry x="-14" y="568" width="80" height="30" as="geometry" />
        </mxCell>
        <mxCell id="I5kwY946Xk2uND15xitP-109" value="" style="endArrow=none;html=1;rounded=0;entryX=0.856;entryY=1.017;entryDx=0;entryDy=0;entryPerimeter=0;exitX=0;exitY=0;exitDx=0;exitDy=0;" parent="1" source="MCrLTPE8SwFMUA2QVfa2-6" target="I5kwY946Xk2uND15xitP-1" edge="1">
          <mxGeometry width="50" height="50" relative="1" as="geometry">
            <mxPoint x="-154" y="358" as="sourcePoint" />
            <mxPoint x="59" y="418" as="targetPoint" />
            <Array as="points" />
          </mxGeometry>
        </mxCell>
        <mxCell id="I5kwY946Xk2uND15xitP-110" value="1" style="text;html=1;align=center;verticalAlign=middle;whiteSpace=wrap;rounded=0;" parent="1" vertex="1">
          <mxGeometry x="-62" y="432" width="60" height="30" as="geometry" />
        </mxCell>
        <mxCell id="I5kwY946Xk2uND15xitP-111" value="1" style="text;html=1;align=center;verticalAlign=middle;whiteSpace=wrap;rounded=0;" parent="1" vertex="1">
          <mxGeometry x="-193" y="290" width="60" height="30" as="geometry" />
        </mxCell>
        <mxCell id="I5kwY946Xk2uND15xitP-112" value="sales_details" style="rounded=0;whiteSpace=wrap;html=1;" parent="1" vertex="1">
          <mxGeometry x="264" y="238" width="120" height="60" as="geometry" />
        </mxCell>
        <mxCell id="I5kwY946Xk2uND15xitP-113" value="" style="endArrow=none;html=1;rounded=0;entryX=0;entryY=1;entryDx=0;entryDy=0;" parent="1" target="I5kwY946Xk2uND15xitP-112" edge="1">
          <mxGeometry width="50" height="50" relative="1" as="geometry">
            <mxPoint x="264" y="383" as="sourcePoint" />
            <mxPoint x="574" y="368" as="targetPoint" />
          </mxGeometry>
        </mxCell>
        <mxCell id="I5kwY946Xk2uND15xitP-114" value="" style="endArrow=none;html=1;rounded=0;" parent="1" edge="1">
          <mxGeometry width="50" height="50" relative="1" as="geometry">
            <mxPoint x="264" y="318" as="sourcePoint" />
            <mxPoint x="274" y="318" as="targetPoint" />
          </mxGeometry>
        </mxCell>
        <mxCell id="I5kwY946Xk2uND15xitP-115" value="type" style="text;strokeColor=none;fillColor=none;align=left;verticalAlign=middle;spacingLeft=4;spacingRight=4;overflow=hidden;points=[[0,0.5],[1,0.5]];portConstraint=eastwest;rotatable=0;whiteSpace=wrap;html=1;" parent="1" vertex="1">
          <mxGeometry x="274" y="303" width="80" height="30" as="geometry" />
        </mxCell>
        <mxCell id="I5kwY946Xk2uND15xitP-116" value="" style="endArrow=none;html=1;rounded=0;" parent="1" edge="1">
          <mxGeometry width="50" height="50" relative="1" as="geometry">
            <mxPoint x="264" y="331" as="sourcePoint" />
            <mxPoint x="274" y="331" as="targetPoint" />
          </mxGeometry>
        </mxCell>
        <mxCell id="I5kwY946Xk2uND15xitP-117" value="price" style="text;strokeColor=none;fillColor=none;align=left;verticalAlign=middle;spacingLeft=4;spacingRight=4;overflow=hidden;points=[[0,0.5],[1,0.5]];portConstraint=eastwest;rotatable=0;whiteSpace=wrap;html=1;" parent="1" vertex="1">
          <mxGeometry x="274" y="316" width="80" height="30" as="geometry" />
        </mxCell>
        <mxCell id="I5kwY946Xk2uND15xitP-118" value="" style="endArrow=none;html=1;rounded=0;" parent="1" edge="1">
          <mxGeometry width="50" height="50" relative="1" as="geometry">
            <mxPoint x="264" y="343" as="sourcePoint" />
            <mxPoint x="274" y="343" as="targetPoint" />
          </mxGeometry>
        </mxCell>
        <mxCell id="I5kwY946Xk2uND15xitP-119" value="amount" style="text;strokeColor=none;fillColor=none;align=left;verticalAlign=middle;spacingLeft=4;spacingRight=4;overflow=hidden;points=[[0,0.5],[1,0.5]];portConstraint=eastwest;rotatable=0;whiteSpace=wrap;html=1;" parent="1" vertex="1">
          <mxGeometry x="274" y="328" width="80" height="30" as="geometry" />
        </mxCell>
        <mxCell id="I5kwY946Xk2uND15xitP-120" value="" style="endArrow=none;html=1;rounded=0;" parent="1" edge="1">
          <mxGeometry width="50" height="50" relative="1" as="geometry">
            <mxPoint x="264" y="356" as="sourcePoint" />
            <mxPoint x="274" y="356" as="targetPoint" />
          </mxGeometry>
        </mxCell>
        <mxCell id="I5kwY946Xk2uND15xitP-121" value="sale_id" style="text;strokeColor=none;fillColor=none;align=left;verticalAlign=middle;spacingLeft=4;spacingRight=4;overflow=hidden;points=[[0,0.5],[1,0.5]];portConstraint=eastwest;rotatable=0;whiteSpace=wrap;html=1;" parent="1" vertex="1">
          <mxGeometry x="274" y="341" width="80" height="30" as="geometry" />
        </mxCell>
        <mxCell id="I5kwY946Xk2uND15xitP-122" value="" style="endArrow=none;html=1;rounded=0;" parent="1" edge="1">
          <mxGeometry width="50" height="50" relative="1" as="geometry">
            <mxPoint x="264" y="368" as="sourcePoint" />
            <mxPoint x="274" y="368" as="targetPoint" />
          </mxGeometry>
        </mxCell>
        <mxCell id="I5kwY946Xk2uND15xitP-123" value="item_id" style="text;strokeColor=none;fillColor=none;align=left;verticalAlign=middle;spacingLeft=4;spacingRight=4;overflow=hidden;points=[[0,0.5],[1,0.5]];portConstraint=eastwest;rotatable=0;whiteSpace=wrap;html=1;" parent="1" vertex="1">
          <mxGeometry x="274" y="353" width="80" height="30" as="geometry" />
        </mxCell>
        <mxCell id="I5kwY946Xk2uND15xitP-124" value="" style="endArrow=none;html=1;rounded=0;" parent="1" edge="1">
          <mxGeometry width="50" height="50" relative="1" as="geometry">
            <mxPoint x="264" y="381" as="sourcePoint" />
            <mxPoint x="274" y="381" as="targetPoint" />
          </mxGeometry>
        </mxCell>
        <mxCell id="I5kwY946Xk2uND15xitP-125" value="subtotal" style="text;strokeColor=none;fillColor=none;align=left;verticalAlign=middle;spacingLeft=4;spacingRight=4;overflow=hidden;points=[[0,0.5],[1,0.5]];portConstraint=eastwest;rotatable=0;whiteSpace=wrap;html=1;" parent="1" vertex="1">
          <mxGeometry x="274" y="366" width="80" height="30" as="geometry" />
        </mxCell>
        <mxCell id="I5kwY946Xk2uND15xitP-126" value="" style="endArrow=none;html=1;rounded=0;entryX=0;entryY=0.5;entryDx=0;entryDy=0;exitX=1;exitY=0.5;exitDx=0;exitDy=0;" parent="1" source="MCrLTPE8SwFMUA2QVfa2-55" target="I5kwY946Xk2uND15xitP-112" edge="1">
          <mxGeometry width="50" height="50" relative="1" as="geometry">
            <mxPoint x="161" y="360" as="sourcePoint" />
            <mxPoint x="211" y="310" as="targetPoint" />
          </mxGeometry>
        </mxCell>
        <mxCell id="I5kwY946Xk2uND15xitP-127" value="1" style="text;html=1;align=center;verticalAlign=middle;whiteSpace=wrap;rounded=0;" parent="1" vertex="1">
          <mxGeometry x="81" y="247" width="60" height="30" as="geometry" />
        </mxCell>
        <mxCell id="I5kwY946Xk2uND15xitP-128" value="1" style="text;html=1;align=center;verticalAlign=middle;whiteSpace=wrap;rounded=0;" parent="1" vertex="1">
          <mxGeometry x="226" y="247" width="60" height="30" as="geometry" />
        </mxCell>
        <mxCell id="I5kwY946Xk2uND15xitP-129" value="services" style="rounded=0;whiteSpace=wrap;html=1;" parent="1" vertex="1">
          <mxGeometry x="313" y="417" width="120" height="60" as="geometry" />
        </mxCell>
        <mxCell id="I5kwY946Xk2uND15xitP-130" value="" style="endArrow=none;html=1;rounded=0;entryX=0;entryY=1;entryDx=0;entryDy=0;" parent="1" target="I5kwY946Xk2uND15xitP-129" edge="1">
          <mxGeometry width="50" height="50" relative="1" as="geometry">
            <mxPoint x="313" y="577" as="sourcePoint" />
            <mxPoint x="623" y="547" as="targetPoint" />
          </mxGeometry>
        </mxCell>
        <mxCell id="I5kwY946Xk2uND15xitP-131" value="" style="endArrow=none;html=1;rounded=0;" parent="1" edge="1">
          <mxGeometry width="50" height="50" relative="1" as="geometry">
            <mxPoint x="313" y="497" as="sourcePoint" />
            <mxPoint x="323" y="497" as="targetPoint" />
          </mxGeometry>
        </mxCell>
        <mxCell id="I5kwY946Xk2uND15xitP-132" value="code" style="text;strokeColor=none;fillColor=none;align=left;verticalAlign=middle;spacingLeft=4;spacingRight=4;overflow=hidden;points=[[0,0.5],[1,0.5]];portConstraint=eastwest;rotatable=0;whiteSpace=wrap;html=1;" parent="1" vertex="1">
          <mxGeometry x="323" y="482" width="80" height="30" as="geometry" />
        </mxCell>
        <mxCell id="I5kwY946Xk2uND15xitP-133" value="" style="endArrow=none;html=1;rounded=0;" parent="1" edge="1">
          <mxGeometry width="50" height="50" relative="1" as="geometry">
            <mxPoint x="313" y="510" as="sourcePoint" />
            <mxPoint x="323" y="510" as="targetPoint" />
          </mxGeometry>
        </mxCell>
        <mxCell id="I5kwY946Xk2uND15xitP-134" value="name" style="text;strokeColor=none;fillColor=none;align=left;verticalAlign=middle;spacingLeft=4;spacingRight=4;overflow=hidden;points=[[0,0.5],[1,0.5]];portConstraint=eastwest;rotatable=0;whiteSpace=wrap;html=1;" parent="1" vertex="1">
          <mxGeometry x="323" y="495" width="80" height="30" as="geometry" />
        </mxCell>
        <mxCell id="I5kwY946Xk2uND15xitP-135" value="" style="endArrow=none;html=1;rounded=0;" parent="1" edge="1">
          <mxGeometry width="50" height="50" relative="1" as="geometry">
            <mxPoint x="313" y="522" as="sourcePoint" />
            <mxPoint x="323" y="522" as="targetPoint" />
          </mxGeometry>
        </mxCell>
        <mxCell id="I5kwY946Xk2uND15xitP-136" value="price" style="text;strokeColor=none;fillColor=none;align=left;verticalAlign=middle;spacingLeft=4;spacingRight=4;overflow=hidden;points=[[0,0.5],[1,0.5]];portConstraint=eastwest;rotatable=0;whiteSpace=wrap;html=1;" parent="1" vertex="1">
          <mxGeometry x="323" y="507" width="80" height="30" as="geometry" />
        </mxCell>
        <mxCell id="I5kwY946Xk2uND15xitP-137" value="" style="endArrow=none;html=1;rounded=0;" parent="1" edge="1">
          <mxGeometry width="50" height="50" relative="1" as="geometry">
            <mxPoint x="313" y="536" as="sourcePoint" />
            <mxPoint x="323" y="536" as="targetPoint" />
          </mxGeometry>
        </mxCell>
        <mxCell id="I5kwY946Xk2uND15xitP-138" value="image_id" style="text;strokeColor=none;fillColor=none;align=left;verticalAlign=middle;spacingLeft=4;spacingRight=4;overflow=hidden;points=[[0,0.5],[1,0.5]];portConstraint=eastwest;rotatable=0;whiteSpace=wrap;html=1;" parent="1" vertex="1">
          <mxGeometry x="323" y="521" width="80" height="30" as="geometry" />
        </mxCell>
        <mxCell id="I5kwY946Xk2uND15xitP-139" value="" style="endArrow=none;html=1;rounded=0;" parent="1" edge="1">
          <mxGeometry width="50" height="50" relative="1" as="geometry">
            <mxPoint x="313" y="550" as="sourcePoint" />
            <mxPoint x="323" y="550" as="targetPoint" />
          </mxGeometry>
        </mxCell>
        <mxCell id="I5kwY946Xk2uND15xitP-140" value="description" style="text;strokeColor=none;fillColor=none;align=left;verticalAlign=middle;spacingLeft=4;spacingRight=4;overflow=hidden;points=[[0,0.5],[1,0.5]];portConstraint=eastwest;rotatable=0;whiteSpace=wrap;html=1;" parent="1" vertex="1">
          <mxGeometry x="323" y="535" width="80" height="30" as="geometry" />
        </mxCell>
        <mxCell id="I5kwY946Xk2uND15xitP-143" value="" style="endArrow=none;html=1;rounded=0;" parent="1" edge="1">
          <mxGeometry width="50" height="50" relative="1" as="geometry">
            <mxPoint x="313" y="563" as="sourcePoint" />
            <mxPoint x="323" y="563" as="targetPoint" />
          </mxGeometry>
        </mxCell>
        <mxCell id="I5kwY946Xk2uND15xitP-144" value="created_at" style="text;strokeColor=none;fillColor=none;align=left;verticalAlign=middle;spacingLeft=4;spacingRight=4;overflow=hidden;points=[[0,0.5],[1,0.5]];portConstraint=eastwest;rotatable=0;whiteSpace=wrap;html=1;" parent="1" vertex="1">
          <mxGeometry x="323" y="548" width="80" height="30" as="geometry" />
        </mxCell>
        <mxCell id="I5kwY946Xk2uND15xitP-145" value="" style="endArrow=none;html=1;rounded=0;" parent="1" edge="1">
          <mxGeometry width="50" height="50" relative="1" as="geometry">
            <mxPoint x="313" y="576" as="sourcePoint" />
            <mxPoint x="323" y="576" as="targetPoint" />
          </mxGeometry>
        </mxCell>
        <mxCell id="I5kwY946Xk2uND15xitP-146" value="updated_at" style="text;strokeColor=none;fillColor=none;align=left;verticalAlign=middle;spacingLeft=4;spacingRight=4;overflow=hidden;points=[[0,0.5],[1,0.5]];portConstraint=eastwest;rotatable=0;whiteSpace=wrap;html=1;" parent="1" vertex="1">
          <mxGeometry x="323" y="561" width="80" height="30" as="geometry" />
        </mxCell>
        <mxCell id="I5kwY946Xk2uND15xitP-147" value="" style="endArrow=none;html=1;rounded=0;entryX=0;entryY=1;entryDx=0;entryDy=0;exitX=0.5;exitY=0;exitDx=0;exitDy=0;" parent="1" source="MCrLTPE8SwFMUA2QVfa2-60" target="I5kwY946Xk2uND15xitP-112" edge="1">
          <mxGeometry width="50" height="50" relative="1" as="geometry">
            <mxPoint x="182" y="327" as="sourcePoint" />
            <mxPoint x="261" y="348" as="targetPoint" />
            <Array as="points">
              <mxPoint x="181" y="298" />
            </Array>
          </mxGeometry>
        </mxCell>
        <mxCell id="I5kwY946Xk2uND15xitP-148" value="1" style="text;html=1;align=center;verticalAlign=middle;whiteSpace=wrap;rounded=0;" parent="1" vertex="1">
          <mxGeometry x="274" y="425" width="60" height="30" as="geometry" />
        </mxCell>
        <mxCell id="I5kwY946Xk2uND15xitP-149" value="n" style="text;html=1;align=center;verticalAlign=middle;whiteSpace=wrap;rounded=0;" parent="1" vertex="1">
          <mxGeometry x="230" y="273" width="60" height="30" as="geometry" />
        </mxCell>
        <mxCell id="I5kwY946Xk2uND15xitP-150" value="products" style="rounded=0;whiteSpace=wrap;html=1;" parent="1" vertex="1">
          <mxGeometry x="12" y="741" width="120" height="60" as="geometry" />
        </mxCell>
        <mxCell id="I5kwY946Xk2uND15xitP-151" value="" style="endArrow=none;html=1;rounded=0;entryX=0;entryY=1;entryDx=0;entryDy=0;" parent="1" target="I5kwY946Xk2uND15xitP-150" edge="1">
          <mxGeometry width="50" height="50" relative="1" as="geometry">
            <mxPoint x="12" y="901" as="sourcePoint" />
            <mxPoint x="322" y="871" as="targetPoint" />
          </mxGeometry>
        </mxCell>
        <mxCell id="I5kwY946Xk2uND15xitP-152" value="" style="endArrow=none;html=1;rounded=0;" parent="1" edge="1">
          <mxGeometry width="50" height="50" relative="1" as="geometry">
            <mxPoint x="12" y="821" as="sourcePoint" />
            <mxPoint x="22" y="821" as="targetPoint" />
          </mxGeometry>
        </mxCell>
        <mxCell id="I5kwY946Xk2uND15xitP-153" value="code" style="text;strokeColor=none;fillColor=none;align=left;verticalAlign=middle;spacingLeft=4;spacingRight=4;overflow=hidden;points=[[0,0.5],[1,0.5]];portConstraint=eastwest;rotatable=0;whiteSpace=wrap;html=1;" parent="1" vertex="1">
          <mxGeometry x="22" y="806" width="80" height="30" as="geometry" />
        </mxCell>
        <mxCell id="I5kwY946Xk2uND15xitP-154" value="" style="endArrow=none;html=1;rounded=0;" parent="1" edge="1">
          <mxGeometry width="50" height="50" relative="1" as="geometry">
            <mxPoint x="12" y="834" as="sourcePoint" />
            <mxPoint x="22" y="834" as="targetPoint" />
          </mxGeometry>
        </mxCell>
        <mxCell id="I5kwY946Xk2uND15xitP-155" value="name" style="text;strokeColor=none;fillColor=none;align=left;verticalAlign=middle;spacingLeft=4;spacingRight=4;overflow=hidden;points=[[0,0.5],[1,0.5]];portConstraint=eastwest;rotatable=0;whiteSpace=wrap;html=1;" parent="1" vertex="1">
          <mxGeometry x="22" y="819" width="80" height="30" as="geometry" />
        </mxCell>
        <mxCell id="I5kwY946Xk2uND15xitP-156" value="" style="endArrow=none;html=1;rounded=0;" parent="1" edge="1">
          <mxGeometry width="50" height="50" relative="1" as="geometry">
            <mxPoint x="12" y="846" as="sourcePoint" />
            <mxPoint x="22" y="846" as="targetPoint" />
          </mxGeometry>
        </mxCell>
        <mxCell id="I5kwY946Xk2uND15xitP-157" value="price" style="text;strokeColor=none;fillColor=none;align=left;verticalAlign=middle;spacingLeft=4;spacingRight=4;overflow=hidden;points=[[0,0.5],[1,0.5]];portConstraint=eastwest;rotatable=0;whiteSpace=wrap;html=1;" parent="1" vertex="1">
          <mxGeometry x="22" y="831" width="80" height="30" as="geometry" />
        </mxCell>
        <mxCell id="I5kwY946Xk2uND15xitP-158" value="" style="endArrow=none;html=1;rounded=0;" parent="1" edge="1">
          <mxGeometry width="50" height="50" relative="1" as="geometry">
            <mxPoint x="12" y="860" as="sourcePoint" />
            <mxPoint x="22" y="860" as="targetPoint" />
          </mxGeometry>
        </mxCell>
        <mxCell id="I5kwY946Xk2uND15xitP-159" value="image_id" style="text;strokeColor=none;fillColor=none;align=left;verticalAlign=middle;spacingLeft=4;spacingRight=4;overflow=hidden;points=[[0,0.5],[1,0.5]];portConstraint=eastwest;rotatable=0;whiteSpace=wrap;html=1;" parent="1" vertex="1">
          <mxGeometry x="22" y="845" width="80" height="30" as="geometry" />
        </mxCell>
        <mxCell id="I5kwY946Xk2uND15xitP-160" value="" style="endArrow=none;html=1;rounded=0;" parent="1" edge="1">
          <mxGeometry width="50" height="50" relative="1" as="geometry">
            <mxPoint x="12" y="874" as="sourcePoint" />
            <mxPoint x="22" y="874" as="targetPoint" />
          </mxGeometry>
        </mxCell>
        <mxCell id="I5kwY946Xk2uND15xitP-161" value="description" style="text;strokeColor=none;fillColor=none;align=left;verticalAlign=middle;spacingLeft=4;spacingRight=4;overflow=hidden;points=[[0,0.5],[1,0.5]];portConstraint=eastwest;rotatable=0;whiteSpace=wrap;html=1;" parent="1" vertex="1">
          <mxGeometry x="22" y="859" width="80" height="30" as="geometry" />
        </mxCell>
        <mxCell id="I5kwY946Xk2uND15xitP-162" value="" style="endArrow=none;html=1;rounded=0;" parent="1" edge="1">
          <mxGeometry width="50" height="50" relative="1" as="geometry">
            <mxPoint x="12" y="887" as="sourcePoint" />
            <mxPoint x="22" y="887" as="targetPoint" />
          </mxGeometry>
        </mxCell>
        <mxCell id="I5kwY946Xk2uND15xitP-163" value="created_at" style="text;strokeColor=none;fillColor=none;align=left;verticalAlign=middle;spacingLeft=4;spacingRight=4;overflow=hidden;points=[[0,0.5],[1,0.5]];portConstraint=eastwest;rotatable=0;whiteSpace=wrap;html=1;" parent="1" vertex="1">
          <mxGeometry x="22" y="872" width="80" height="30" as="geometry" />
        </mxCell>
        <mxCell id="I5kwY946Xk2uND15xitP-164" value="" style="endArrow=none;html=1;rounded=0;" parent="1" edge="1">
          <mxGeometry width="50" height="50" relative="1" as="geometry">
            <mxPoint x="12" y="900" as="sourcePoint" />
            <mxPoint x="22" y="900" as="targetPoint" />
          </mxGeometry>
        </mxCell>
        <mxCell id="I5kwY946Xk2uND15xitP-165" value="updated_at" style="text;strokeColor=none;fillColor=none;align=left;verticalAlign=middle;spacingLeft=4;spacingRight=4;overflow=hidden;points=[[0,0.5],[1,0.5]];portConstraint=eastwest;rotatable=0;whiteSpace=wrap;html=1;" parent="1" vertex="1">
          <mxGeometry x="22" y="885" width="80" height="30" as="geometry" />
        </mxCell>
        <mxCell id="I5kwY946Xk2uND15xitP-166" value="" style="endArrow=none;html=1;rounded=0;entryX=0;entryY=0.5;entryDx=0;entryDy=0;exitX=1;exitY=0.75;exitDx=0;exitDy=0;" parent="1" target="MCrLTPE8SwFMUA2QVfa2-4" edge="1" source="I5kwY946Xk2uND15xitP-95">
          <mxGeometry width="50" height="50" relative="1" as="geometry">
            <mxPoint x="97" y="459" as="sourcePoint" />
            <mxPoint x="127" y="578" as="targetPoint" />
          </mxGeometry>
        </mxCell>
        <mxCell id="I5kwY946Xk2uND15xitP-167" value="1" style="text;html=1;align=center;verticalAlign=middle;whiteSpace=wrap;rounded=0;" parent="1" vertex="1">
          <mxGeometry x="73" y="466" width="60" height="30" as="geometry" />
        </mxCell>
        <mxCell id="I5kwY946Xk2uND15xitP-168" value="1" style="text;html=1;align=center;verticalAlign=middle;whiteSpace=wrap;rounded=0;" parent="1" vertex="1">
          <mxGeometry x="278" y="455" width="60" height="30" as="geometry" />
        </mxCell>
        <mxCell id="I5kwY946Xk2uND15xitP-169" value="" style="endArrow=none;html=1;rounded=0;entryX=1;entryY=0.5;entryDx=0;entryDy=0;exitX=0.5;exitY=0;exitDx=0;exitDy=0;" parent="1" source="MCrLTPE8SwFMUA2QVfa2-57" target="I5kwY946Xk2uND15xitP-112" edge="1">
          <mxGeometry width="50" height="50" relative="1" as="geometry">
            <mxPoint x="487" y="386" as="sourcePoint" />
            <mxPoint x="405" y="350" as="targetPoint" />
            <Array as="points">
              <mxPoint x="511" y="268" />
            </Array>
          </mxGeometry>
        </mxCell>
        <mxCell id="I5kwY946Xk2uND15xitP-170" value="n" style="text;html=1;align=center;verticalAlign=middle;whiteSpace=wrap;rounded=0;" parent="1" vertex="1">
          <mxGeometry x="365" y="244" width="60" height="30" as="geometry" />
        </mxCell>
        <mxCell id="I5kwY946Xk2uND15xitP-171" value="1" style="text;html=1;align=center;verticalAlign=middle;whiteSpace=wrap;rounded=0;" parent="1" vertex="1">
          <mxGeometry x="109" y="749" width="60" height="30" as="geometry" />
        </mxCell>
        <mxCell id="I5kwY946Xk2uND15xitP-172" value="products_categories" style="rounded=0;whiteSpace=wrap;html=1;" parent="1" vertex="1">
          <mxGeometry x="118" y="953" width="120" height="60" as="geometry" />
        </mxCell>
        <mxCell id="I5kwY946Xk2uND15xitP-173" value="" style="endArrow=none;html=1;rounded=0;entryX=0;entryY=1;entryDx=0;entryDy=0;" parent="1" target="I5kwY946Xk2uND15xitP-172" edge="1">
          <mxGeometry width="50" height="50" relative="1" as="geometry">
            <mxPoint x="118" y="1049" as="sourcePoint" />
            <mxPoint x="428" y="1083" as="targetPoint" />
          </mxGeometry>
        </mxCell>
        <mxCell id="I5kwY946Xk2uND15xitP-174" value="" style="endArrow=none;html=1;rounded=0;" parent="1" edge="1">
          <mxGeometry width="50" height="50" relative="1" as="geometry">
            <mxPoint x="118" y="1033" as="sourcePoint" />
            <mxPoint x="128" y="1033" as="targetPoint" />
          </mxGeometry>
        </mxCell>
        <mxCell id="I5kwY946Xk2uND15xitP-175" value="product_id" style="text;strokeColor=none;fillColor=none;align=left;verticalAlign=middle;spacingLeft=4;spacingRight=4;overflow=hidden;points=[[0,0.5],[1,0.5]];portConstraint=eastwest;rotatable=0;whiteSpace=wrap;html=1;" parent="1" vertex="1">
          <mxGeometry x="128" y="1018" width="80" height="30" as="geometry" />
        </mxCell>
        <mxCell id="I5kwY946Xk2uND15xitP-176" value="" style="endArrow=none;html=1;rounded=0;" parent="1" edge="1">
          <mxGeometry width="50" height="50" relative="1" as="geometry">
            <mxPoint x="118" y="1046" as="sourcePoint" />
            <mxPoint x="128" y="1046" as="targetPoint" />
          </mxGeometry>
        </mxCell>
        <mxCell id="I5kwY946Xk2uND15xitP-177" value="category_id" style="text;strokeColor=none;fillColor=none;align=left;verticalAlign=middle;spacingLeft=4;spacingRight=4;overflow=hidden;points=[[0,0.5],[1,0.5]];portConstraint=eastwest;rotatable=0;whiteSpace=wrap;html=1;" parent="1" vertex="1">
          <mxGeometry x="128" y="1031" width="80" height="30" as="geometry" />
        </mxCell>
        <mxCell id="I5kwY946Xk2uND15xitP-188" value="products_images" style="rounded=0;whiteSpace=wrap;html=1;" parent="1" vertex="1">
          <mxGeometry x="-285" y="974" width="120" height="60" as="geometry" />
        </mxCell>
        <mxCell id="I5kwY946Xk2uND15xitP-189" value="" style="endArrow=none;html=1;rounded=0;entryX=0;entryY=1;entryDx=0;entryDy=0;" parent="1" target="I5kwY946Xk2uND15xitP-188" edge="1">
          <mxGeometry width="50" height="50" relative="1" as="geometry">
            <mxPoint x="-285" y="1070" as="sourcePoint" />
            <mxPoint x="25" y="1104" as="targetPoint" />
          </mxGeometry>
        </mxCell>
        <mxCell id="I5kwY946Xk2uND15xitP-190" value="" style="endArrow=none;html=1;rounded=0;" parent="1" edge="1">
          <mxGeometry width="50" height="50" relative="1" as="geometry">
            <mxPoint x="-285" y="1054" as="sourcePoint" />
            <mxPoint x="-275" y="1054" as="targetPoint" />
          </mxGeometry>
        </mxCell>
        <mxCell id="I5kwY946Xk2uND15xitP-191" value="product_id" style="text;strokeColor=none;fillColor=none;align=left;verticalAlign=middle;spacingLeft=4;spacingRight=4;overflow=hidden;points=[[0,0.5],[1,0.5]];portConstraint=eastwest;rotatable=0;whiteSpace=wrap;html=1;" parent="1" vertex="1">
          <mxGeometry x="-275" y="1039" width="80" height="30" as="geometry" />
        </mxCell>
        <mxCell id="I5kwY946Xk2uND15xitP-192" value="" style="endArrow=none;html=1;rounded=0;" parent="1" edge="1">
          <mxGeometry width="50" height="50" relative="1" as="geometry">
            <mxPoint x="-285" y="1067" as="sourcePoint" />
            <mxPoint x="-275" y="1067" as="targetPoint" />
          </mxGeometry>
        </mxCell>
        <mxCell id="I5kwY946Xk2uND15xitP-193" value="image_id" style="text;strokeColor=none;fillColor=none;align=left;verticalAlign=middle;spacingLeft=4;spacingRight=4;overflow=hidden;points=[[0,0.5],[1,0.5]];portConstraint=eastwest;rotatable=0;whiteSpace=wrap;html=1;" parent="1" vertex="1">
          <mxGeometry x="-275" y="1052" width="80" height="30" as="geometry" />
        </mxCell>
        <mxCell id="I5kwY946Xk2uND15xitP-194" value="categories" style="rounded=0;whiteSpace=wrap;html=1;" parent="1" vertex="1">
          <mxGeometry x="-272" y="743" width="120" height="60" as="geometry" />
        </mxCell>
        <mxCell id="I5kwY946Xk2uND15xitP-195" value="" style="endArrow=none;html=1;rounded=0;entryX=0;entryY=1;entryDx=0;entryDy=0;" parent="1" target="I5kwY946Xk2uND15xitP-194" edge="1">
          <mxGeometry width="50" height="50" relative="1" as="geometry">
            <mxPoint x="-272" y="888" as="sourcePoint" />
            <mxPoint x="38" y="873" as="targetPoint" />
          </mxGeometry>
        </mxCell>
        <mxCell id="I5kwY946Xk2uND15xitP-196" value="" style="endArrow=none;html=1;rounded=0;" parent="1" edge="1">
          <mxGeometry width="50" height="50" relative="1" as="geometry">
            <mxPoint x="-272" y="823" as="sourcePoint" />
            <mxPoint x="-262" y="823" as="targetPoint" />
          </mxGeometry>
        </mxCell>
        <mxCell id="I5kwY946Xk2uND15xitP-197" value="code" style="text;strokeColor=none;fillColor=none;align=left;verticalAlign=middle;spacingLeft=4;spacingRight=4;overflow=hidden;points=[[0,0.5],[1,0.5]];portConstraint=eastwest;rotatable=0;whiteSpace=wrap;html=1;" parent="1" vertex="1">
          <mxGeometry x="-262" y="808" width="80" height="30" as="geometry" />
        </mxCell>
        <mxCell id="I5kwY946Xk2uND15xitP-198" value="" style="endArrow=none;html=1;rounded=0;" parent="1" edge="1">
          <mxGeometry width="50" height="50" relative="1" as="geometry">
            <mxPoint x="-272" y="836" as="sourcePoint" />
            <mxPoint x="-262" y="836" as="targetPoint" />
          </mxGeometry>
        </mxCell>
        <mxCell id="I5kwY946Xk2uND15xitP-199" value="name" style="text;strokeColor=none;fillColor=none;align=left;verticalAlign=middle;spacingLeft=4;spacingRight=4;overflow=hidden;points=[[0,0.5],[1,0.5]];portConstraint=eastwest;rotatable=0;whiteSpace=wrap;html=1;" parent="1" vertex="1">
          <mxGeometry x="-262" y="821" width="80" height="30" as="geometry" />
        </mxCell>
        <mxCell id="I5kwY946Xk2uND15xitP-200" value="" style="endArrow=none;html=1;rounded=0;" parent="1" edge="1">
          <mxGeometry width="50" height="50" relative="1" as="geometry">
            <mxPoint x="-272" y="848" as="sourcePoint" />
            <mxPoint x="-262" y="848" as="targetPoint" />
          </mxGeometry>
        </mxCell>
        <mxCell id="I5kwY946Xk2uND15xitP-201" value="image_id" style="text;strokeColor=none;fillColor=none;align=left;verticalAlign=middle;spacingLeft=4;spacingRight=4;overflow=hidden;points=[[0,0.5],[1,0.5]];portConstraint=eastwest;rotatable=0;whiteSpace=wrap;html=1;" parent="1" vertex="1">
          <mxGeometry x="-262" y="833" width="80" height="30" as="geometry" />
        </mxCell>
        <mxCell id="I5kwY946Xk2uND15xitP-202" value="" style="endArrow=none;html=1;rounded=0;" parent="1" edge="1">
          <mxGeometry width="50" height="50" relative="1" as="geometry">
            <mxPoint x="-272" y="861" as="sourcePoint" />
            <mxPoint x="-262" y="861" as="targetPoint" />
          </mxGeometry>
        </mxCell>
        <mxCell id="I5kwY946Xk2uND15xitP-203" value="description" style="text;strokeColor=none;fillColor=none;align=left;verticalAlign=middle;spacingLeft=4;spacingRight=4;overflow=hidden;points=[[0,0.5],[1,0.5]];portConstraint=eastwest;rotatable=0;whiteSpace=wrap;html=1;" parent="1" vertex="1">
          <mxGeometry x="-262" y="846" width="80" height="30" as="geometry" />
        </mxCell>
        <mxCell id="I5kwY946Xk2uND15xitP-204" value="" style="endArrow=none;html=1;rounded=0;" parent="1" edge="1">
          <mxGeometry width="50" height="50" relative="1" as="geometry">
            <mxPoint x="-272" y="873" as="sourcePoint" />
            <mxPoint x="-262" y="873" as="targetPoint" />
          </mxGeometry>
        </mxCell>
        <mxCell id="I5kwY946Xk2uND15xitP-205" value="created_at" style="text;strokeColor=none;fillColor=none;align=left;verticalAlign=middle;spacingLeft=4;spacingRight=4;overflow=hidden;points=[[0,0.5],[1,0.5]];portConstraint=eastwest;rotatable=0;whiteSpace=wrap;html=1;" parent="1" vertex="1">
          <mxGeometry x="-262" y="858" width="80" height="30" as="geometry" />
        </mxCell>
        <mxCell id="I5kwY946Xk2uND15xitP-206" value="" style="endArrow=none;html=1;rounded=0;" parent="1" edge="1">
          <mxGeometry width="50" height="50" relative="1" as="geometry">
            <mxPoint x="-272" y="886" as="sourcePoint" />
            <mxPoint x="-262" y="886" as="targetPoint" />
          </mxGeometry>
        </mxCell>
        <mxCell id="I5kwY946Xk2uND15xitP-207" value="updated_at" style="text;strokeColor=none;fillColor=none;align=left;verticalAlign=middle;spacingLeft=4;spacingRight=4;overflow=hidden;points=[[0,0.5],[1,0.5]];portConstraint=eastwest;rotatable=0;whiteSpace=wrap;html=1;" parent="1" vertex="1">
          <mxGeometry x="-262" y="871" width="80" height="30" as="geometry" />
        </mxCell>
        <mxCell id="I5kwY946Xk2uND15xitP-208" value="quotes" style="rounded=0;whiteSpace=wrap;html=1;" parent="1" vertex="1">
          <mxGeometry x="-152" y="22" width="120" height="60" as="geometry" />
        </mxCell>
        <mxCell id="I5kwY946Xk2uND15xitP-209" value="" style="endArrow=none;html=1;rounded=0;entryX=0;entryY=1;entryDx=0;entryDy=0;" parent="1" target="I5kwY946Xk2uND15xitP-208" edge="1">
          <mxGeometry width="50" height="50" relative="1" as="geometry">
            <mxPoint x="-152" y="194" as="sourcePoint" />
            <mxPoint x="158" y="152" as="targetPoint" />
          </mxGeometry>
        </mxCell>
        <mxCell id="I5kwY946Xk2uND15xitP-210" value="" style="endArrow=none;html=1;rounded=0;" parent="1" edge="1">
          <mxGeometry width="50" height="50" relative="1" as="geometry">
            <mxPoint x="-152" y="102" as="sourcePoint" />
            <mxPoint x="-142" y="102" as="targetPoint" />
          </mxGeometry>
        </mxCell>
        <mxCell id="I5kwY946Xk2uND15xitP-211" value="code" style="text;strokeColor=none;fillColor=none;align=left;verticalAlign=middle;spacingLeft=4;spacingRight=4;overflow=hidden;points=[[0,0.5],[1,0.5]];portConstraint=eastwest;rotatable=0;whiteSpace=wrap;html=1;" parent="1" vertex="1">
          <mxGeometry x="-142" y="87" width="80" height="30" as="geometry" />
        </mxCell>
        <mxCell id="I5kwY946Xk2uND15xitP-212" value="" style="endArrow=none;html=1;rounded=0;" parent="1" edge="1">
          <mxGeometry width="50" height="50" relative="1" as="geometry">
            <mxPoint x="-152" y="115" as="sourcePoint" />
            <mxPoint x="-142" y="115" as="targetPoint" />
          </mxGeometry>
        </mxCell>
        <mxCell id="I5kwY946Xk2uND15xitP-213" value="state" style="text;strokeColor=none;fillColor=none;align=left;verticalAlign=middle;spacingLeft=4;spacingRight=4;overflow=hidden;points=[[0,0.5],[1,0.5]];portConstraint=eastwest;rotatable=0;whiteSpace=wrap;html=1;" parent="1" vertex="1">
          <mxGeometry x="-142" y="100" width="80" height="30" as="geometry" />
        </mxCell>
        <mxCell id="I5kwY946Xk2uND15xitP-214" value="" style="endArrow=none;html=1;rounded=0;" parent="1" edge="1">
          <mxGeometry width="50" height="50" relative="1" as="geometry">
            <mxPoint x="-152" y="127" as="sourcePoint" />
            <mxPoint x="-142" y="127" as="targetPoint" />
          </mxGeometry>
        </mxCell>
        <mxCell id="I5kwY946Xk2uND15xitP-215" value="number" style="text;strokeColor=none;fillColor=none;align=left;verticalAlign=middle;spacingLeft=4;spacingRight=4;overflow=hidden;points=[[0,0.5],[1,0.5]];portConstraint=eastwest;rotatable=0;whiteSpace=wrap;html=1;" parent="1" vertex="1">
          <mxGeometry x="-142" y="112" width="80" height="30" as="geometry" />
        </mxCell>
        <mxCell id="I5kwY946Xk2uND15xitP-216" value="" style="endArrow=none;html=1;rounded=0;" parent="1" edge="1">
          <mxGeometry width="50" height="50" relative="1" as="geometry">
            <mxPoint x="-152" y="141" as="sourcePoint" />
            <mxPoint x="-142" y="141" as="targetPoint" />
          </mxGeometry>
        </mxCell>
        <mxCell id="I5kwY946Xk2uND15xitP-217" value="method" style="text;strokeColor=none;fillColor=none;align=left;verticalAlign=middle;spacingLeft=4;spacingRight=4;overflow=hidden;points=[[0,0.5],[1,0.5]];portConstraint=eastwest;rotatable=0;whiteSpace=wrap;html=1;" parent="1" vertex="1">
          <mxGeometry x="-142" y="126" width="80" height="30" as="geometry" />
        </mxCell>
        <mxCell id="I5kwY946Xk2uND15xitP-218" value="" style="endArrow=none;html=1;rounded=0;" parent="1" edge="1">
          <mxGeometry width="50" height="50" relative="1" as="geometry">
            <mxPoint x="-152" y="155" as="sourcePoint" />
            <mxPoint x="-142" y="155" as="targetPoint" />
          </mxGeometry>
        </mxCell>
        <mxCell id="I5kwY946Xk2uND15xitP-219" value="amount" style="text;strokeColor=none;fillColor=none;align=left;verticalAlign=middle;spacingLeft=4;spacingRight=4;overflow=hidden;points=[[0,0.5],[1,0.5]];portConstraint=eastwest;rotatable=0;whiteSpace=wrap;html=1;" parent="1" vertex="1">
          <mxGeometry x="-142" y="140" width="80" height="30" as="geometry" />
        </mxCell>
        <mxCell id="I5kwY946Xk2uND15xitP-220" value="" style="endArrow=none;html=1;rounded=0;" parent="1" edge="1">
          <mxGeometry width="50" height="50" relative="1" as="geometry">
            <mxPoint x="-152" y="169" as="sourcePoint" />
            <mxPoint x="-142" y="169" as="targetPoint" />
          </mxGeometry>
        </mxCell>
        <mxCell id="I5kwY946Xk2uND15xitP-221" value="sale_id" style="text;strokeColor=none;fillColor=none;align=left;verticalAlign=middle;spacingLeft=4;spacingRight=4;overflow=hidden;points=[[0,0.5],[1,0.5]];portConstraint=eastwest;rotatable=0;whiteSpace=wrap;html=1;" parent="1" vertex="1">
          <mxGeometry x="-142" y="154" width="80" height="30" as="geometry" />
        </mxCell>
        <mxCell id="I5kwY946Xk2uND15xitP-222" value="" style="endArrow=none;html=1;rounded=0;" parent="1" edge="1">
          <mxGeometry width="50" height="50" relative="1" as="geometry">
            <mxPoint x="-152" y="182" as="sourcePoint" />
            <mxPoint x="-142" y="182" as="targetPoint" />
          </mxGeometry>
        </mxCell>
        <mxCell id="I5kwY946Xk2uND15xitP-223" value="created_at" style="text;strokeColor=none;fillColor=none;align=left;verticalAlign=middle;spacingLeft=4;spacingRight=4;overflow=hidden;points=[[0,0.5],[1,0.5]];portConstraint=eastwest;rotatable=0;whiteSpace=wrap;html=1;" parent="1" vertex="1">
          <mxGeometry x="-142" y="167" width="80" height="30" as="geometry" />
        </mxCell>
        <mxCell id="I5kwY946Xk2uND15xitP-224" value="" style="endArrow=none;html=1;rounded=0;" parent="1" edge="1">
          <mxGeometry width="50" height="50" relative="1" as="geometry">
            <mxPoint x="-152" y="195" as="sourcePoint" />
            <mxPoint x="-142" y="195" as="targetPoint" />
          </mxGeometry>
        </mxCell>
        <mxCell id="I5kwY946Xk2uND15xitP-225" value="updated_at" style="text;strokeColor=none;fillColor=none;align=left;verticalAlign=middle;spacingLeft=4;spacingRight=4;overflow=hidden;points=[[0,0.5],[1,0.5]];portConstraint=eastwest;rotatable=0;whiteSpace=wrap;html=1;" parent="1" vertex="1">
          <mxGeometry x="-142" y="180" width="80" height="30" as="geometry" />
        </mxCell>
        <mxCell id="MCrLTPE8SwFMUA2QVfa2-1" value="" style="endArrow=none;html=1;rounded=0;entryX=1;entryY=1;entryDx=0;entryDy=0;exitX=0.5;exitY=0;exitDx=0;exitDy=0;" edge="1" parent="1" source="MCrLTPE8SwFMUA2QVfa2-2" target="I5kwY946Xk2uND15xitP-95">
          <mxGeometry width="50" height="50" relative="1" as="geometry">
            <mxPoint x="117" y="676" as="sourcePoint" />
            <mxPoint x="167" y="626" as="targetPoint" />
          </mxGeometry>
        </mxCell>
        <mxCell id="MCrLTPE8SwFMUA2QVfa2-2" value="Tiene" style="shape=rhombus;perimeter=rhombusPerimeter;whiteSpace=wrap;html=1;align=center;" vertex="1" parent="1">
          <mxGeometry x="28" y="604" width="120" height="60" as="geometry" />
        </mxCell>
        <mxCell id="MCrLTPE8SwFMUA2QVfa2-3" value="" style="endArrow=none;html=1;rounded=0;exitX=0.75;exitY=0;exitDx=0;exitDy=0;entryX=0.5;entryY=1;entryDx=0;entryDy=0;" edge="1" parent="1" source="I5kwY946Xk2uND15xitP-150" target="MCrLTPE8SwFMUA2QVfa2-2">
          <mxGeometry width="50" height="50" relative="1" as="geometry">
            <mxPoint x="117" y="676" as="sourcePoint" />
            <mxPoint x="167" y="626" as="targetPoint" />
          </mxGeometry>
        </mxCell>
        <mxCell id="MCrLTPE8SwFMUA2QVfa2-4" value="Tiene" style="shape=rhombus;perimeter=rhombusPerimeter;whiteSpace=wrap;html=1;align=center;" vertex="1" parent="1">
          <mxGeometry x="138" y="455" width="120" height="60" as="geometry" />
        </mxCell>
        <mxCell id="MCrLTPE8SwFMUA2QVfa2-5" value="" style="endArrow=none;html=1;rounded=0;exitX=1;exitY=0.5;exitDx=0;exitDy=0;entryX=0;entryY=1;entryDx=0;entryDy=0;" edge="1" parent="1" source="MCrLTPE8SwFMUA2QVfa2-4" target="I5kwY946Xk2uND15xitP-129">
          <mxGeometry width="50" height="50" relative="1" as="geometry">
            <mxPoint x="117" y="541" as="sourcePoint" />
            <mxPoint x="226" y="558" as="targetPoint" />
          </mxGeometry>
        </mxCell>
        <mxCell id="MCrLTPE8SwFMUA2QVfa2-6" value="Tiene" style="shape=rhombus;perimeter=rhombusPerimeter;whiteSpace=wrap;html=1;align=center;" vertex="1" parent="1">
          <mxGeometry x="-173" y="376" width="120" height="60" as="geometry" />
        </mxCell>
        <mxCell id="MCrLTPE8SwFMUA2QVfa2-8" value="" style="endArrow=none;html=1;rounded=0;entryX=1;entryY=1;entryDx=0;entryDy=0;exitX=0;exitY=0;exitDx=0;exitDy=0;" edge="1" parent="1" source="I5kwY946Xk2uND15xitP-95" target="MCrLTPE8SwFMUA2QVfa2-6">
          <mxGeometry width="50" height="50" relative="1" as="geometry">
            <mxPoint x="94" y="515" as="sourcePoint" />
            <mxPoint x="144" y="465" as="targetPoint" />
          </mxGeometry>
        </mxCell>
        <mxCell id="MCrLTPE8SwFMUA2QVfa2-9" value="Tiene" style="shape=rhombus;perimeter=rhombusPerimeter;whiteSpace=wrap;html=1;align=center;" vertex="1" parent="1">
          <mxGeometry x="-185" y="593" width="120" height="60" as="geometry" />
        </mxCell>
        <mxCell id="MCrLTPE8SwFMUA2QVfa2-10" value="" style="endArrow=none;html=1;rounded=0;entryX=0;entryY=1;entryDx=0;entryDy=0;exitX=1;exitY=0;exitDx=0;exitDy=0;" edge="1" parent="1" source="I5kwY946Xk2uND15xitP-194" target="MCrLTPE8SwFMUA2QVfa2-9">
          <mxGeometry width="50" height="50" relative="1" as="geometry">
            <mxPoint x="94" y="648" as="sourcePoint" />
            <mxPoint x="144" y="598" as="targetPoint" />
          </mxGeometry>
        </mxCell>
        <mxCell id="MCrLTPE8SwFMUA2QVfa2-11" value="" style="endArrow=none;html=1;rounded=0;exitX=0.5;exitY=0;exitDx=0;exitDy=0;entryX=0;entryY=0.5;entryDx=0;entryDy=0;" edge="1" parent="1" source="MCrLTPE8SwFMUA2QVfa2-9" target="I5kwY946Xk2uND15xitP-95">
          <mxGeometry width="50" height="50" relative="1" as="geometry">
            <mxPoint x="94" y="648" as="sourcePoint" />
            <mxPoint x="144" y="598" as="targetPoint" />
            <Array as="points">
              <mxPoint x="-111" y="470" />
            </Array>
          </mxGeometry>
        </mxCell>
        <mxCell id="MCrLTPE8SwFMUA2QVfa2-12" value="1" style="text;html=1;align=center;verticalAlign=middle;whiteSpace=wrap;rounded=0;rotation=0;" vertex="1" parent="1">
          <mxGeometry x="-190" y="720" width="60" height="30" as="geometry" />
        </mxCell>
        <mxCell id="MCrLTPE8SwFMUA2QVfa2-13" value="1" style="text;html=1;align=center;verticalAlign=middle;whiteSpace=wrap;rounded=0;" vertex="1" parent="1">
          <mxGeometry x="-62" y="462" width="60" height="30" as="geometry" />
        </mxCell>
        <mxCell id="MCrLTPE8SwFMUA2QVfa2-14" value="" style="endArrow=none;html=1;rounded=0;entryX=0;entryY=1;entryDx=0;entryDy=0;exitX=0.5;exitY=0;exitDx=0;exitDy=0;" edge="1" parent="1" source="MCrLTPE8SwFMUA2QVfa2-15" target="I5kwY946Xk2uND15xitP-95">
          <mxGeometry width="50" height="50" relative="1" as="geometry">
            <mxPoint x="-85" y="789" as="sourcePoint" />
            <mxPoint x="-54" y="551" as="targetPoint" />
          </mxGeometry>
        </mxCell>
        <mxCell id="MCrLTPE8SwFMUA2QVfa2-15" value="Guarda" style="shape=rhombus;perimeter=rhombusPerimeter;whiteSpace=wrap;html=1;align=center;" vertex="1" parent="1">
          <mxGeometry x="-182" y="828" width="120" height="60" as="geometry" />
        </mxCell>
        <mxCell id="MCrLTPE8SwFMUA2QVfa2-16" value="" style="endArrow=none;html=1;rounded=0;entryX=0.5;entryY=1;entryDx=0;entryDy=0;exitX=1;exitY=0;exitDx=0;exitDy=0;" edge="1" parent="1" source="I5kwY946Xk2uND15xitP-188" target="MCrLTPE8SwFMUA2QVfa2-15">
          <mxGeometry width="50" height="50" relative="1" as="geometry">
            <mxPoint x="133" y="840" as="sourcePoint" />
            <mxPoint x="183" y="790" as="targetPoint" />
          </mxGeometry>
        </mxCell>
        <mxCell id="MCrLTPE8SwFMUA2QVfa2-17" value="1" style="text;html=1;align=center;verticalAlign=middle;whiteSpace=wrap;rounded=0;rotation=0;" vertex="1" parent="1">
          <mxGeometry x="-62" y="491" width="60" height="30" as="geometry" />
        </mxCell>
        <mxCell id="MCrLTPE8SwFMUA2QVfa2-18" value="n" style="text;html=1;align=center;verticalAlign=middle;whiteSpace=wrap;rounded=0;rotation=0;" vertex="1" parent="1">
          <mxGeometry x="-202" y="950" width="60" height="30" as="geometry" />
        </mxCell>
        <mxCell id="MCrLTPE8SwFMUA2QVfa2-19" value="" style="endArrow=none;html=1;rounded=0;entryX=0;entryY=1;entryDx=0;entryDy=0;exitX=0.5;exitY=0;exitDx=0;exitDy=0;" edge="1" parent="1" source="MCrLTPE8SwFMUA2QVfa2-20" target="I5kwY946Xk2uND15xitP-150">
          <mxGeometry width="50" height="50" relative="1" as="geometry">
            <mxPoint x="-39" y="888" as="sourcePoint" />
            <mxPoint x="-34" y="816" as="targetPoint" />
          </mxGeometry>
        </mxCell>
        <mxCell id="MCrLTPE8SwFMUA2QVfa2-20" value="Tiene" style="shape=rhombus;perimeter=rhombusPerimeter;whiteSpace=wrap;html=1;align=center;" vertex="1" parent="1">
          <mxGeometry x="-127" y="901" width="120" height="60" as="geometry" />
        </mxCell>
        <mxCell id="MCrLTPE8SwFMUA2QVfa2-21" value="" style="endArrow=none;html=1;rounded=0;entryX=0.5;entryY=1;entryDx=0;entryDy=0;exitX=1;exitY=0.75;exitDx=0;exitDy=0;" edge="1" parent="1" source="I5kwY946Xk2uND15xitP-188" target="MCrLTPE8SwFMUA2QVfa2-20">
          <mxGeometry width="50" height="50" relative="1" as="geometry">
            <mxPoint x="35" y="886" as="sourcePoint" />
            <mxPoint x="85" y="836" as="targetPoint" />
            <Array as="points">
              <mxPoint x="-67" y="1019" />
            </Array>
          </mxGeometry>
        </mxCell>
        <mxCell id="MCrLTPE8SwFMUA2QVfa2-22" value="n" style="text;html=1;align=center;verticalAlign=middle;whiteSpace=wrap;rounded=0;rotation=0;" vertex="1" parent="1">
          <mxGeometry x="-185" y="999" width="60" height="30" as="geometry" />
        </mxCell>
        <mxCell id="MCrLTPE8SwFMUA2QVfa2-23" value="1" style="text;html=1;align=center;verticalAlign=middle;whiteSpace=wrap;rounded=0;rotation=0;" vertex="1" parent="1">
          <mxGeometry x="-24" y="786" width="60" height="30" as="geometry" />
        </mxCell>
        <mxCell id="MCrLTPE8SwFMUA2QVfa2-24" value="1" style="text;html=1;align=center;verticalAlign=middle;whiteSpace=wrap;rounded=0;rotation=0;" vertex="1" parent="1">
          <mxGeometry x="78" y="720" width="60" height="30" as="geometry" />
        </mxCell>
        <mxCell id="MCrLTPE8SwFMUA2QVfa2-26" value="1" style="text;html=1;align=center;verticalAlign=middle;whiteSpace=wrap;rounded=0;rotation=0;" vertex="1" parent="1">
          <mxGeometry x="61" y="492" width="60" height="30" as="geometry" />
        </mxCell>
        <mxCell id="MCrLTPE8SwFMUA2QVfa2-27" value="Pertenecen" style="shape=rhombus;perimeter=rhombusPerimeter;whiteSpace=wrap;html=1;align=center;" vertex="1" parent="1">
          <mxGeometry x="148" y="838" width="120" height="60" as="geometry" />
        </mxCell>
        <mxCell id="MCrLTPE8SwFMUA2QVfa2-28" value="" style="endArrow=none;html=1;rounded=0;entryX=1;entryY=1;entryDx=0;entryDy=0;exitX=0.5;exitY=0;exitDx=0;exitDy=0;" edge="1" parent="1" source="MCrLTPE8SwFMUA2QVfa2-27" target="I5kwY946Xk2uND15xitP-150">
          <mxGeometry width="50" height="50" relative="1" as="geometry">
            <mxPoint x="36" y="916" as="sourcePoint" />
            <mxPoint x="86" y="866" as="targetPoint" />
            <Array as="points">
              <mxPoint x="208" y="801" />
            </Array>
          </mxGeometry>
        </mxCell>
        <mxCell id="MCrLTPE8SwFMUA2QVfa2-29" value="" style="endArrow=none;html=1;rounded=0;entryX=0.5;entryY=1;entryDx=0;entryDy=0;exitX=0.75;exitY=0;exitDx=0;exitDy=0;" edge="1" parent="1" source="I5kwY946Xk2uND15xitP-172" target="MCrLTPE8SwFMUA2QVfa2-27">
          <mxGeometry width="50" height="50" relative="1" as="geometry">
            <mxPoint x="213" y="950" as="sourcePoint" />
            <mxPoint x="86" y="866" as="targetPoint" />
          </mxGeometry>
        </mxCell>
        <mxCell id="MCrLTPE8SwFMUA2QVfa2-30" value="1" style="text;html=1;align=center;verticalAlign=middle;whiteSpace=wrap;rounded=0;" vertex="1" parent="1">
          <mxGeometry x="109" y="779" width="60" height="30" as="geometry" />
        </mxCell>
        <mxCell id="MCrLTPE8SwFMUA2QVfa2-32" value="n" style="text;html=1;align=center;verticalAlign=middle;whiteSpace=wrap;rounded=0;" vertex="1" parent="1">
          <mxGeometry x="184" y="931" width="60" height="30" as="geometry" />
        </mxCell>
        <mxCell id="MCrLTPE8SwFMUA2QVfa2-33" value="" style="endArrow=none;html=1;rounded=0;entryX=0;entryY=0.5;entryDx=0;entryDy=0;exitX=0;exitY=0.5;exitDx=0;exitDy=0;" edge="1" parent="1" source="MCrLTPE8SwFMUA2QVfa2-34" target="I5kwY946Xk2uND15xitP-194">
          <mxGeometry width="50" height="50" relative="1" as="geometry">
            <mxPoint x="-49" y="1086" as="sourcePoint" />
            <mxPoint x="-349" y="857" as="targetPoint" />
            <Array as="points">
              <mxPoint x="-337" y="1083" />
              <mxPoint x="-337" y="773" />
            </Array>
          </mxGeometry>
        </mxCell>
        <mxCell id="MCrLTPE8SwFMUA2QVfa2-34" value="Pertenecen" style="shape=rhombus;perimeter=rhombusPerimeter;whiteSpace=wrap;html=1;align=center;" vertex="1" parent="1">
          <mxGeometry x="-54" y="1052" width="120" height="60" as="geometry" />
        </mxCell>
        <mxCell id="MCrLTPE8SwFMUA2QVfa2-35" value="" style="endArrow=none;html=1;rounded=0;exitX=1;exitY=0.5;exitDx=0;exitDy=0;entryX=0.75;entryY=1;entryDx=0;entryDy=0;" edge="1" parent="1" source="MCrLTPE8SwFMUA2QVfa2-34" target="I5kwY946Xk2uND15xitP-172">
          <mxGeometry width="50" height="50" relative="1" as="geometry">
            <mxPoint x="-4" y="1007" as="sourcePoint" />
            <mxPoint x="239" y="1079" as="targetPoint" />
            <Array as="points">
              <mxPoint x="208" y="1082" />
            </Array>
          </mxGeometry>
        </mxCell>
        <mxCell id="MCrLTPE8SwFMUA2QVfa2-36" value="n" style="text;html=1;align=center;verticalAlign=middle;whiteSpace=wrap;rounded=0;" vertex="1" parent="1">
          <mxGeometry x="184" y="1004" width="60" height="30" as="geometry" />
        </mxCell>
        <mxCell id="MCrLTPE8SwFMUA2QVfa2-37" value="1" style="text;html=1;align=center;verticalAlign=middle;whiteSpace=wrap;rounded=0;" vertex="1" parent="1">
          <mxGeometry x="-306" y="752" width="60" height="30" as="geometry" />
        </mxCell>
        <mxCell id="MCrLTPE8SwFMUA2QVfa2-38" value="Generan" style="shape=rhombus;perimeter=rhombusPerimeter;whiteSpace=wrap;html=1;align=center;" vertex="1" parent="1">
          <mxGeometry x="-447" y="350" width="120" height="60" as="geometry" />
        </mxCell>
        <mxCell id="MCrLTPE8SwFMUA2QVfa2-39" value="" style="endArrow=none;html=1;rounded=0;entryX=0.5;entryY=1;entryDx=0;entryDy=0;exitX=0;exitY=0.5;exitDx=0;exitDy=0;" edge="1" parent="1" source="I5kwY946Xk2uND15xitP-57" target="MCrLTPE8SwFMUA2QVfa2-38">
          <mxGeometry width="50" height="50" relative="1" as="geometry">
            <mxPoint x="-4" y="607" as="sourcePoint" />
            <mxPoint x="46" y="557" as="targetPoint" />
            <Array as="points">
              <mxPoint x="-384" y="523" />
            </Array>
          </mxGeometry>
        </mxCell>
        <mxCell id="MCrLTPE8SwFMUA2QVfa2-40" value="Realizan" style="shape=rhombus;perimeter=rhombusPerimeter;whiteSpace=wrap;html=1;align=center;" vertex="1" parent="1">
          <mxGeometry x="-302" y="106" width="120" height="60" as="geometry" />
        </mxCell>
        <mxCell id="MCrLTPE8SwFMUA2QVfa2-41" value="" style="endArrow=none;html=1;rounded=0;entryX=0.5;entryY=1;entryDx=0;entryDy=0;exitX=0.25;exitY=0;exitDx=0;exitDy=0;" edge="1" parent="1" source="I5kwY946Xk2uND15xitP-1" target="MCrLTPE8SwFMUA2QVfa2-40">
          <mxGeometry width="50" height="50" relative="1" as="geometry">
            <mxPoint x="-73" y="319" as="sourcePoint" />
            <mxPoint x="-23" y="269" as="targetPoint" />
          </mxGeometry>
        </mxCell>
        <mxCell id="MCrLTPE8SwFMUA2QVfa2-42" value="Generan" style="shape=rhombus;perimeter=rhombusPerimeter;whiteSpace=wrap;html=1;align=center;" vertex="1" parent="1">
          <mxGeometry x="-47" y="97" width="120" height="60" as="geometry" />
        </mxCell>
        <mxCell id="MCrLTPE8SwFMUA2QVfa2-43" value="" style="endArrow=none;html=1;rounded=0;exitX=1;exitY=0.5;exitDx=0;exitDy=0;entryX=0.5;entryY=0;entryDx=0;entryDy=0;" edge="1" parent="1" source="I5kwY946Xk2uND15xitP-208" target="MCrLTPE8SwFMUA2QVfa2-42">
          <mxGeometry width="50" height="50" relative="1" as="geometry">
            <mxPoint x="-4" y="266" as="sourcePoint" />
            <mxPoint x="79" y="53" as="targetPoint" />
            <Array as="points">
              <mxPoint x="13" y="52" />
            </Array>
          </mxGeometry>
        </mxCell>
        <mxCell id="MCrLTPE8SwFMUA2QVfa2-44" value="" style="endArrow=none;html=1;rounded=0;entryX=0.5;entryY=1;entryDx=0;entryDy=0;exitX=0.25;exitY=0;exitDx=0;exitDy=0;" edge="1" parent="1" source="I5kwY946Xk2uND15xitP-78" target="MCrLTPE8SwFMUA2QVfa2-42">
          <mxGeometry width="50" height="50" relative="1" as="geometry">
            <mxPoint x="-4" y="266" as="sourcePoint" />
            <mxPoint x="46" y="216" as="targetPoint" />
          </mxGeometry>
        </mxCell>
        <mxCell id="MCrLTPE8SwFMUA2QVfa2-45" value="n" style="text;html=1;align=center;verticalAlign=middle;whiteSpace=wrap;rounded=0;" vertex="1" parent="1">
          <mxGeometry x="-53" y="31" width="60" height="30" as="geometry" />
        </mxCell>
        <mxCell id="MCrLTPE8SwFMUA2QVfa2-47" value="1" style="text;html=1;align=center;verticalAlign=middle;whiteSpace=wrap;rounded=0;" vertex="1" parent="1">
          <mxGeometry x="-10" y="217" width="60" height="30" as="geometry" />
        </mxCell>
        <mxCell id="MCrLTPE8SwFMUA2QVfa2-49" value="" style="endArrow=none;html=1;rounded=0;entryX=0;entryY=0.5;entryDx=0;entryDy=0;exitX=1;exitY=0.5;exitDx=0;exitDy=0;" edge="1" parent="1" source="I5kwY946Xk2uND15xitP-1" target="MCrLTPE8SwFMUA2QVfa2-48">
          <mxGeometry width="50" height="50" relative="1" as="geometry">
            <mxPoint x="-152" y="268" as="sourcePoint" />
            <mxPoint x="-17" y="268" as="targetPoint" />
          </mxGeometry>
        </mxCell>
        <mxCell id="MCrLTPE8SwFMUA2QVfa2-48" value="Producen" style="shape=rhombus;perimeter=rhombusPerimeter;whiteSpace=wrap;html=1;align=center;" vertex="1" parent="1">
          <mxGeometry x="-134" y="238" width="102" height="60" as="geometry" />
        </mxCell>
        <mxCell id="MCrLTPE8SwFMUA2QVfa2-50" value="" style="endArrow=none;html=1;rounded=0;exitX=1;exitY=0;exitDx=0;exitDy=0;entryX=0.5;entryY=0;entryDx=0;entryDy=0;" edge="1" parent="1" source="I5kwY946Xk2uND15xitP-78" target="MCrLTPE8SwFMUA2QVfa2-51">
          <mxGeometry width="50" height="50" relative="1" as="geometry">
            <mxPoint x="-4" y="266" as="sourcePoint" />
            <mxPoint x="-409" y="17" as="targetPoint" />
            <Array as="points">
              <mxPoint x="103" y="6" />
              <mxPoint x="-425" y="6" />
            </Array>
          </mxGeometry>
        </mxCell>
        <mxCell id="MCrLTPE8SwFMUA2QVfa2-51" value="Realizan" style="shape=rhombus;perimeter=rhombusPerimeter;whiteSpace=wrap;html=1;align=center;" vertex="1" parent="1">
          <mxGeometry x="-485" y="22" width="120" height="60" as="geometry" />
        </mxCell>
        <mxCell id="MCrLTPE8SwFMUA2QVfa2-52" value="" style="endArrow=none;html=1;rounded=0;entryX=0.5;entryY=1;entryDx=0;entryDy=0;exitX=0.5;exitY=0;exitDx=0;exitDy=0;" edge="1" parent="1" source="I5kwY946Xk2uND15xitP-28" target="MCrLTPE8SwFMUA2QVfa2-51">
          <mxGeometry width="50" height="50" relative="1" as="geometry">
            <mxPoint x="-4" y="266" as="sourcePoint" />
            <mxPoint x="46" y="216" as="targetPoint" />
          </mxGeometry>
        </mxCell>
        <mxCell id="MCrLTPE8SwFMUA2QVfa2-53" value="1" style="text;html=1;align=center;verticalAlign=middle;whiteSpace=wrap;rounded=0;" vertex="1" parent="1">
          <mxGeometry x="68" y="217" width="60" height="30" as="geometry" />
        </mxCell>
        <mxCell id="MCrLTPE8SwFMUA2QVfa2-54" value="n" style="text;html=1;align=center;verticalAlign=middle;whiteSpace=wrap;rounded=0;" vertex="1" parent="1">
          <mxGeometry x="-447" y="84" width="60" height="30" as="geometry" />
        </mxCell>
        <mxCell id="MCrLTPE8SwFMUA2QVfa2-56" value="" style="endArrow=none;html=1;rounded=0;entryX=0;entryY=0.5;entryDx=0;entryDy=0;exitX=1;exitY=0.5;exitDx=0;exitDy=0;" edge="1" parent="1" source="I5kwY946Xk2uND15xitP-78" target="MCrLTPE8SwFMUA2QVfa2-55">
          <mxGeometry width="50" height="50" relative="1" as="geometry">
            <mxPoint x="103" y="268" as="sourcePoint" />
            <mxPoint x="264" y="268" as="targetPoint" />
          </mxGeometry>
        </mxCell>
        <mxCell id="MCrLTPE8SwFMUA2QVfa2-55" value="Contienen" style="shape=rhombus;perimeter=rhombusPerimeter;whiteSpace=wrap;html=1;align=center;" vertex="1" parent="1">
          <mxGeometry x="132" y="234" width="102" height="60" as="geometry" />
        </mxCell>
        <mxCell id="MCrLTPE8SwFMUA2QVfa2-57" value="Contienen" style="shape=rhombus;perimeter=rhombusPerimeter;whiteSpace=wrap;html=1;align=center;" vertex="1" parent="1">
          <mxGeometry x="456" y="407" width="120" height="60" as="geometry" />
        </mxCell>
        <mxCell id="MCrLTPE8SwFMUA2QVfa2-59" value="" style="endArrow=none;html=1;rounded=0;entryX=0.5;entryY=1;entryDx=0;entryDy=0;exitX=1;exitY=0.5;exitDx=0;exitDy=0;" edge="1" parent="1" source="I5kwY946Xk2uND15xitP-150" target="MCrLTPE8SwFMUA2QVfa2-57">
          <mxGeometry width="50" height="50" relative="1" as="geometry">
            <mxPoint x="254" y="523" as="sourcePoint" />
            <mxPoint x="304" y="473" as="targetPoint" />
            <Array as="points">
              <mxPoint x="516" y="771" />
            </Array>
          </mxGeometry>
        </mxCell>
        <mxCell id="MCrLTPE8SwFMUA2QVfa2-60" value="Contienen" style="shape=rhombus;perimeter=rhombusPerimeter;whiteSpace=wrap;html=1;align=center;" vertex="1" parent="1">
          <mxGeometry x="121" y="333" width="120" height="60" as="geometry" />
        </mxCell>
        <mxCell id="MCrLTPE8SwFMUA2QVfa2-61" value="" style="endArrow=none;html=1;rounded=0;entryX=0.5;entryY=1;entryDx=0;entryDy=0;exitX=0;exitY=0.5;exitDx=0;exitDy=0;" edge="1" parent="1" source="I5kwY946Xk2uND15xitP-129" target="MCrLTPE8SwFMUA2QVfa2-60">
          <mxGeometry width="50" height="50" relative="1" as="geometry">
            <mxPoint x="332" y="523" as="sourcePoint" />
            <mxPoint x="382" y="473" as="targetPoint" />
            <Array as="points">
              <mxPoint x="181" y="447" />
            </Array>
          </mxGeometry>
        </mxCell>
      </root>
    </mxGraphModel>
  </diagram>
</mxfile>
